<svg id="Layer_1" data-name="Layer 1" xmlns="http://www.w3.org/2000/svg" viewBox="0 0 800 799.99"><path d="M449.12 546.49c-135.79-61.46-230.27-198.13-230.27-356.88 0-63.69 15.22-123.82 42.2-176.97C115.22 73.18 12.64 216.94 12.64 384.68c0 222.39 180.29 402.67 402.67 402.67 167.75 0 311.51-102.58 372.05-248.42-53.16 26.98-113.29 42.2-176.98 42.2-42.48 0-83.38-6.77-121.67-19.27" fill="#e5e5e5" stroke="#e0e1e2" stroke-miterlimit="10"/><path d="M415.31 799.99c-110.93 0-215.23-43.2-293.67-121.64C43.2 599.91 0 495.62 0 384.68c0-83.71 24.8-164.39 71.71-233.33C117.49 84.07 181.29 32.07 256.21.97c4.88-2.03 10.52-.8 14.12 3.08a12.64 12.64 0 012 14.31c-27.1 53.38-40.83 111-40.83 171.25 0 148.54 87.47 284.1 222.84 345.36 6.36 2.88 9.18 10.37 6.3 16.73-2.88 6.36-10.36 9.18-16.73 6.3-69.87-31.62-129.14-82.29-171.4-146.53-43.37-65.91-66.29-142.64-66.29-221.87 0-52.55 9.8-103.22 29.18-151.09C106.72 105.28 25.28 237.74 25.28 384.68c0 215.07 174.97 390.03 390.03 390.03 146.94 0 279.4-81.44 346.16-210.11-47.87 19.37-98.55 29.17-151.09 29.17-42.92 0-85.17-6.7-125.6-19.9-6.64-2.17-10.26-9.3-8.09-15.94 2.17-6.63 9.29-10.26 15.94-8.09 37.89 12.38 77.5 18.65 117.75 18.65 60.26 0 117.88-13.74 171.26-40.83 4.72-2.4 10.43-1.6 14.31 2 3.88 3.6 5.11 9.23 3.08 14.12-31.1 74.92-83.1 138.72-150.38 184.5-68.94 46.91-149.63 71.71-233.34 71.71z" stroke-width="0" fill="#757475"/><path d="M446.49 761.23c-222.39 0-402.67-180.28-402.67-402.67 0-116.72 49.68-221.83 129.03-295.36C75.54 136.69 12.64 253.33 12.64 384.68c0 222.39 180.29 402.67 402.67 402.67 105.68 0 201.83-40.72 273.66-107.32-67.45 50.96-151.43 81.2-242.49 81.2z" fill="#757475" stroke-miterlimit="10" stroke="#fff" opacity=".79"/></svg>