<svg id="eNJyEhZPsrl1" xmlns="http://www.w3.org/2000/svg" xmlns:xlink="http://www.w3.org/1999/xlink" viewBox="0 0 659.92 690.45" shape-rendering="geometricPrecision" text-rendering="geometricPrecision">
<style><![CDATA[
#eNJyEhZPsrl4_tr {animation: eNJyEhZPsrl4_tr__tr 10000ms linear infinite normal forwards}@keyframes eNJyEhZPsrl4_tr__tr { 0% {transform: translate(292.755127px,252.561905px) rotate(0deg)} 50% {transform: translate(292.755127px,252.561905px) rotate(-4.010894deg)} 100% {transform: translate(292.755127px,252.561905px) rotate(0deg)}} #eNJyEhZPsrl6_tr {animation: eNJyEhZPsrl6_tr__tr 10000ms linear infinite normal forwards}@keyframes eNJyEhZPsrl6_tr__tr { 0% {transform: translate(148.422919px,252.561907px) rotate(0deg)} 23.333333% {transform: translate(148.422919px,252.561907px) rotate(11.019143deg)} 76.666667% {transform: translate(148.422919px,252.561907px) rotate(-13.763424deg)} 100% {transform: translate(148.422919px,252.561907px) rotate(0deg)}} #eNJyEhZPsrl8_tr {animation: eNJyEhZPsrl8_tr__tr 10000ms linear infinite normal forwards}@keyframes eNJyEhZPsrl8_tr__tr { 0% {transform: translate(114.608302px,173.291466px) rotate(0deg)} 30% {transform: translate(114.608302px,173.291466px) rotate(-8.406549deg)} 70% {transform: translate(114.608302px,173.291466px) rotate(17.930498deg)} 100% {transform: translate(114.608302px,173.291466px) rotate(0deg)}} #eNJyEhZPsrl10_tr {animation: eNJyEhZPsrl10_tr__tr 10000ms linear infinite normal forwards}@keyframes eNJyEhZPsrl10_tr__tr { 0% {transform: translate(101.397573px,164.807512px) rotate(0deg)} 33.333333% {transform: translate(101.397573px,164.807512px) rotate(14.524922deg)} 66.666667% {transform: translate(101.397573px,164.807512px) rotate(-16.019853deg)} 100% {transform: translate(101.397573px,164.807512px) rotate(0deg)}} #eNJyEhZPsrl12_tr {animation: eNJyEhZPsrl12_tr__tr 10000ms linear infinite normal forwards}@keyframes eNJyEhZPsrl12_tr__tr { 0% {transform: translate(104.185158px,162.181994px) rotate(0deg)} 16.666667% {transform: translate(104.185158px,162.181994px) rotate(9.502394deg)} 76.666667% {transform: translate(104.185158px,162.181994px) rotate(-18.577867deg)} 100% {transform: translate(104.185158px,162.181994px) rotate(0deg)}} #eNJyEhZPsrl14_tr {animation: eNJyEhZPsrl14_tr__tr 10000ms linear infinite normal forwards}@keyframes eNJyEhZPsrl14_tr__tr { 0% {transform: translate(166.602821px,203.222046px) rotate(0deg)} 33.333333% {transform: translate(166.602821px,203.222046px) rotate(-13.112697deg)} 73.333333% {transform: translate(166.602821px,203.222046px) rotate(20.451403deg)} 100% {transform: translate(166.602821px,203.222046px) rotate(0deg)}} #eNJyEhZPsrl16_tr {animation: eNJyEhZPsrl16_tr__tr 10000ms linear infinite normal forwards}@keyframes eNJyEhZPsrl16_tr__tr { 0% {transform: translate(245.256946px,256.959717px) rotate(0deg)} 30% {transform: translate(245.256946px,256.959717px) rotate(12.225242deg)} 80% {transform: translate(245.256946px,256.959717px) rotate(-5.822644deg)} 100% {transform: translate(245.256946px,256.959717px) rotate(0deg)}} #eNJyEhZPsrl18_tr {animation: eNJyEhZPsrl18_tr__tr 10000ms linear infinite normal forwards}@keyframes eNJyEhZPsrl18_tr__tr { 0% {transform: translate(314.666477px,108.004109px) rotate(0deg)} 16.666667% {transform: translate(314.666477px,108.004109px) rotate(8.478609deg)} 66.666667% {transform: translate(314.666477px,108.004109px) rotate(-15.433626deg)} 100% {transform: translate(314.666477px,108.004109px) rotate(0deg)}} #eNJyEhZPsrl20_tr {animation: eNJyEhZPsrl20_tr__tr 10000ms linear infinite normal forwards}@keyframes eNJyEhZPsrl20_tr__tr { 0% {transform: translate(319.425354px,65.211555px) rotate(0deg)} 50% {transform: translate(319.425354px,65.211555px) rotate(15.387384deg)} 100% {transform: translate(319.425354px,65.211555px) rotate(0deg)}} #eNJyEhZPsrl22_tr {animation: eNJyEhZPsrl22_tr__tr 10000ms linear infinite normal forwards}@keyframes eNJyEhZPsrl22_tr__tr { 0% {transform: translate(355.240143px,197.837999px) rotate(0deg)} 13.333333% {transform: translate(355.240143px,197.837999px) rotate(7.953304deg)} 66.666667% {transform: translate(355.240143px,197.837999px) rotate(-19.172139deg)} 100% {transform: translate(355.240143px,197.837999px) rotate(0deg)}} #eNJyEhZPsrl24_tr {animation: eNJyEhZPsrl24_tr__tr 10000ms linear infinite normal forwards}@keyframes eNJyEhZPsrl24_tr__tr { 0% {transform: translate(406.224397px,160.044299px) rotate(0deg)} 30% {transform: translate(406.224397px,160.044299px) rotate(-10.028026deg)} 86.666667% {transform: translate(406.224397px,160.044299px) rotate(13.152493deg)} 100% {transform: translate(406.224397px,160.044299px) rotate(0deg)}} #eNJyEhZPsrl26_tr {animation: eNJyEhZPsrl26_tr__tr 10000ms linear infinite normal forwards}@keyframes eNJyEhZPsrl26_tr__tr { 0% {transform: translate(457.112545px,116.94074px) rotate(0deg)} 50% {transform: translate(457.112545px,116.94074px) rotate(-4.821662deg)} 100% {transform: translate(457.112545px,116.94074px) rotate(0deg)}} #eNJyEhZPsrl28_tr {animation: eNJyEhZPsrl28_tr__tr 10000ms linear infinite normal forwards}@keyframes eNJyEhZPsrl28_tr__tr { 0% {transform: translate(425.830029px,151.106437px) rotate(0deg)} 26.666667% {transform: translate(425.830029px,151.106437px) rotate(-8.812889deg)} 70% {transform: translate(425.830029px,151.106437px) rotate(11.604478deg)} 100% {transform: translate(425.830029px,151.106437px) rotate(0deg)}} #eNJyEhZPsrl30_tr {animation: eNJyEhZPsrl30_tr__tr 10000ms linear infinite normal forwards}@keyframes eNJyEhZPsrl30_tr__tr { 0% {transform: translate(389.506302px,183.47902px) rotate(0deg)} 20% {transform: translate(389.506302px,183.47902px) rotate(7.45731deg)} 73.333333% {transform: translate(389.506302px,183.47902px) rotate(-18.655522deg)} 100% {transform: translate(389.506302px,183.47902px) rotate(0deg)}} #eNJyEhZPsrl32_tr {animation: eNJyEhZPsrl32_tr__tr 10000ms linear infinite normal forwards}@keyframes eNJyEhZPsrl32_tr__tr { 0% {transform: translate(334.84845px,228.39537px) rotate(0deg)} 26.666667% {transform: translate(334.84845px,228.39537px) rotate(-9.91187deg)} 80% {transform: translate(334.84845px,228.39537px) rotate(17.619472deg)} 100% {transform: translate(334.84845px,228.39537px) rotate(0deg)}} #eNJyEhZPsrl34_tr {animation: eNJyEhZPsrl34_tr__tr 10000ms linear infinite normal forwards}@keyframes eNJyEhZPsrl34_tr__tr { 0% {transform: translate(418.360229px,379.935699px) rotate(0deg)} 23.333333% {transform: translate(418.360229px,379.935699px) rotate(-15.467245deg)} 66.666667% {transform: translate(418.360229px,379.935699px) rotate(10.544699deg)} 100% {transform: translate(418.360229px,379.935699px) rotate(0deg)}} #eNJyEhZPsrl36_tr {animation: eNJyEhZPsrl36_tr__tr 10000ms linear infinite normal forwards}@keyframes eNJyEhZPsrl36_tr__tr { 0% {transform: translate(474.327409px,355.437073px) rotate(0deg)} 26.666667% {transform: translate(474.327409px,355.437073px) rotate(5.032558deg)} 76.666667% {transform: translate(474.327409px,355.437073px) rotate(-19.754914deg)} 100% {transform: translate(474.327409px,355.437073px) rotate(0deg)}} #eNJyEhZPsrl38_tr {animation: eNJyEhZPsrl38_tr__tr 10000ms linear infinite normal forwards}@keyframes eNJyEhZPsrl38_tr__tr { 0% {transform: translate(521.397644px,338.468628px) rotate(0deg)} 50% {transform: translate(521.397644px,338.468628px) rotate(-13.211115deg)} 100% {transform: translate(521.397644px,338.468628px) rotate(0deg)}} #eNJyEhZPsrl40_tr {animation: eNJyEhZPsrl40_tr__tr 10000ms linear infinite normal forwards}@keyframes eNJyEhZPsrl40_tr__tr { 0% {transform: translate(491.298706px,355.437075px) rotate(0deg)} 20% {transform: translate(491.298706px,355.437075px) rotate(7.386773deg)} 80% {transform: translate(491.298706px,355.437075px) rotate(-5.362248deg)} 100% {transform: translate(491.298706px,355.437075px) rotate(0deg)}} #eNJyEhZPsrl42_tr {animation: eNJyEhZPsrl42_tr__tr 10000ms linear infinite normal forwards}@keyframes eNJyEhZPsrl42_tr__tr { 0% {transform: translate(394.15459px,400.116039px) rotate(0deg)} 33.333333% {transform: translate(394.15459px,400.116039px) rotate(-7.388029deg)} 66.666667% {transform: translate(394.15459px,400.116039px) rotate(16.580981deg)} 100% {transform: translate(394.15459px,400.116039px) rotate(0deg)}} #eNJyEhZPsrl44_tr {animation: eNJyEhZPsrl44_tr__tr 10000ms linear infinite normal forwards}@keyframes eNJyEhZPsrl44_tr__tr { 0% {transform: translate(379.36264px,410.709503px) rotate(0deg)} 33.333333% {transform: translate(379.36264px,410.709503px) rotate(10.142934deg)} 66.666667% {transform: translate(379.36264px,410.709503px) rotate(-23.565422deg)} 100% {transform: translate(379.36264px,410.709503px) rotate(0deg)}}
]]></style>
<g><path d="M289.8,688.34l13.29-386.1-99.7-62.84-83.99,18.73l76.13-23.56-97.28-73.11L306.1,292.58L318.79,55.12l2.42,172.21L468.64,105.88l-59.21,62.24l71.9,41.69-78.55-36.25-81.57,68.28l1.81,183.69L452.33,364.5l-19.94-84.59l29,80.97l90.03-35.65-228.4,112.99.6,250.76h-33.84v-.61l.02-.03Z" fill="#7b4d3c" stroke="#533d2c" stroke-width="3" stroke-miterlimit="10"/></g><g id="eNJyEhZPsrl4_tr" transform="translate(292.755127,252.561905) rotate(0)"><g transform="translate(-292.75512,-252.561903)"><path d="M281.98,308.83c0,0,1.21-3.63,3.63-7.25l4.23-4.23c0-4.23-2.42-2.42-2.42-2.42s-.6,3.02-3.02,6.04c-1.81,3.02-4.83,6.04-5.44,5.44-4.83-1.21-17.52-6.65-30.82,9.67c2.42-23.56-12.69-33.23-18.13-38.07-1.21-1.21.6-7.85,2.42-13.29c2.42-5.44,6.04-9.67,6.04-9.67s-.6-5.44-6.04-1.21c-.6.6-1.21,6.65-2.42,9.67-2.42,6.65-6.04,12.08-6.04,12.08s-26.59-9.06-48.94,9.67c-53.17,44.71-26.59,120.85-22.36,121.45c1.81,0,.6-4.83,5.44-9.67c2.42-2.42,7.25-3.63,10.88-4.23c21.75-4.23,30.82-4.23,48.94-20.54c6.04-5.44,12.08-11.48,18.13-21.15c0,8.46,2.42,13.29,6.65,22.96l1.81,6.65c-.6,4.23-3.63,5.44-3.02,6.04c1.81,1.81,48.34-10.27,52.57-51.36.6-16.31-12.08-26.59-12.08-26.59v0l-.01.01Z" fill="#50855a" stroke="#3d5743" stroke-width="3" stroke-miterlimit="10"/></g></g><g id="eNJyEhZPsrl6_tr" transform="translate(148.422919,252.561907) rotate(0)"><g transform="translate(-148.422914,-252.561904)"><path d="M144.93,267.17c-.6-.6.6-4.83,1.81-7.85c1.81-3.63,3.63-6.04,3.63-6.04s0-3.63-3.63-1.21l-1.81,6.04c-1.81,3.63-4.23,7.25-4.23,7.25s-16.31-6.04-30.82,4.83c-33.84,26.59-18.73,74.32-16.31,74.92c1.21,0,.6-3.02,3.62-6.04l6.65-2.42c13.9-2.42,19.34-2.42,30.82-11.48c6.04-4.83,12.08-10.27,17.52-24.77c9.06-21.15-3.63-29.61-7.25-33.23v0Z" fill="#50855a" stroke="#3d5743" stroke-width="3" stroke-miterlimit="10"/></g></g><g id="eNJyEhZPsrl8_tr" transform="translate(114.608302,173.291466) rotate(0)"><g transform="translate(-114.6083,-173.291466)"><path d="M115.42,253.67c5.44-6.65,10.27-13.9,13.29-30.21c4.23-24.77-10.88-31.42-15.71-33.84-.6-.6-.6-5.44.6-9.06c1.21-4.23,3.02-7.25,3.02-7.25s-1.21-3.63-4.23,0l-.6,6.65c-1.21,4.83-3.02,8.46-3.02,8.46s-19.34-3.63-32.63,11.48c-30.82,35.65-3.02,83.99-.6,83.99c1.21,0,0-3.63,2.42-7.25l6.65-4.23c14.5-4.83,20.54-6.04,30.82-18.73v0l-.01-.01Z" fill="#50855a" stroke="#3d5743" stroke-width="3" stroke-miterlimit="10"/></g></g><g id="eNJyEhZPsrl10_tr" transform="translate(101.397573,164.807512) rotate(0)"><g transform="translate(-101.397569,-164.807512)"><path d="M87.9,168.17c0,0,3.62-1.21,7.85-1.81h6.04c3.02-2.42,0-3.63,0-3.63s-3.02,1.21-6.65,1.81c-3.62.6-7.85,0-7.85-.6-1.81-4.23-6.65-18.13-28.4-16.92-14.5,1.21-21.15,4.83-27.79,9.06-12.08,7.85-13.9,12.69-19.34,24.77l-3.62,5.44c-3.62,1.81-6.65.6-6.65,1.81c0,2.42,39.28,29.61,73.11,6.65c14.5-9.67,13.29-26.59,13.29-26.59v0l.01.01Z" fill="#50855a" stroke="#3d5743" stroke-width="3" stroke-miterlimit="10"/></g></g><g id="eNJyEhZPsrl12_tr" transform="translate(104.185158,162.181994) rotate(0)"><g transform="translate(-104.185156,-162.181985)"><path d="M100.71,145.23c0,0,1.21,4.23,1.81,9.06l-.6,6.65c3.02,3.63,4.23.6,4.23.6s-1.21-3.02-1.81-7.25c-.6-3.63,0-8.46,1.21-9.06c4.83-1.81,21.15-6.65,20.54-31.42-.6-16.92-4.83-24.17-9.06-31.42-8.46-13.9-13.9-16.31-27.19-22.96L83.8,54.6c-2.42-4.23-.6-7.25-1.81-7.25-2.42-.6-36.86,43.5-11.48,83.38c10.27,15.11,30.21,14.5,30.21,14.5v0h-.01Z" fill="#50855a" stroke="#3d5743" stroke-width="3" stroke-miterlimit="10"/></g></g><g id="eNJyEhZPsrl14_tr" transform="translate(166.602821,203.222046) rotate(0)"><g transform="translate(-166.602821,-203.222041)"><path d="M166.66,190.08c0,0,.6,3.63,0,7.85l-1.81,5.44c1.81,3.63,3.63,1.21,3.63,1.21s-.6-3.02,0-6.65s1.81-7.25,2.42-7.25c4.83-.6,19.34-1.81,23.56-23.56c2.42-14.5.6-21.75-1.81-29-4.83-13.9-9.06-16.31-18.73-24.77l-4.23-5.44c-1.21-3.62.6-6.04,0-6.65-2.42-.6-38.67,30.82-24.17,69.49c3.6,12.13,43.72,23.52,21.15,19.34v0l-.01-.01Z" fill="#50855a" stroke="#3d5743" stroke-width="3" stroke-miterlimit="10"/></g></g><g id="eNJyEhZPsrl16_tr" transform="translate(245.256946,256.959717) rotate(0)"><g transform="translate(-245.256924,-256.959717)"><path d="M258.22,105.55c-3.02-1.21-60.42,41.69-42.9,100.3c7.25,24.77,31.42,30.82,31.42,30.82s0,6.04-1.21,12.08c-.6,3.02-3.02,7.25-3.02,8.46c1.81,5.44,5.44,1.81,5.44,1.81s-.6-4.83.6-10.27c.6-4.83,3.02-10.88,4.23-10.88c7.25-.6,29-.6,36.86-32.02c5.44-21.15,3.02-32.02,0-42.9-5.44-20.54-11.48-24.77-25.98-38.67-2.42-2.42-5.44-5.44-6.04-8.46-1.21-6.65,2.42-9.67.6-10.27v0Z" fill="#50855a" stroke="#3d5743" stroke-width="3" stroke-miterlimit="10"/></g></g><g id="eNJyEhZPsrl18_tr" transform="translate(314.666477,108.004109) rotate(0)"><g transform="translate(-314.666473,-108.004108)"><path d="M310.26,102.62c-3.63-3.62-5.44-7.25-5.44-7.25s13.29-14.5,7.85-33.84c-13.29-44.71-68.88-47.73-70.69-45.92-.6,1.21,3.02,1.81,4.23,6.04.6,2.42,0,5.44-.6,7.85-3.02,14.5-5.44,19.94,0,35.65c2.42,8.46,6.04,16.31,18.13,27.19c18.13,16.92,32.02,7.85,36.86,5.44c1.21-.6,4.83,2.42,7.25,5.44c3.02,3.02,4.23,6.04,4.23,6.04s3.63,1.21,2.42-3.62l-4.23-3.02v0h-.01Z" fill="#50855a" stroke="#3d5743" stroke-width="3" stroke-miterlimit="10"/></g></g><g id="eNJyEhZPsrl20_tr" transform="translate(319.425354,65.211555) rotate(0)"><g transform="translate(-319.425354,-65.211541)"><path d="M332.16,55.96c0,0,12.08,10.27,27.79,5.44c37.46-12.08,39.27-58.61,37.46-59.82-.6-.6-1.21,2.42-4.83,3.62h-6.65c-12.69-2.42-16.92-4.23-30.21.6-6.65,2.42-13.29,5.44-22.96,15.71-13.9,15.71-6.04,27.19-3.63,31.42l-4.23,6.65c-2.42,2.42-5.44,3.62-5.44,3.62s-.6,3.02,3.02,1.81l3.02-4.83c3.63-1.81,6.65-4.23,6.65-4.23v0l.01.01Z" fill="#50855a" stroke="#3d5743" stroke-width="3" stroke-miterlimit="10"/></g></g><g id="eNJyEhZPsrl22_tr" transform="translate(355.240143,197.837999) rotate(0)"><g transform="translate(-355.240143,-197.837997)"><path d="M354.29,190.06l-1.21,6.04c1.81,3.63,3.63.6,3.63.6s-.6-3.02-.6-6.65s1.21-7.25,1.81-7.85c4.83-1.21,19.34-3.63,21.15-25.38c1.21-14.5-1.21-21.75-4.23-28.4-6.04-13.29-10.27-15.71-21.15-22.96l-4.83-5.44c-1.81-3.62,0-6.04-.6-6.65-2.42-.6-35.65,33.84-18.13,71.3c7.25,15.71,24.17,17.52,24.17,17.52s.6,3.63,0,7.85v0l-.01.02Z" fill="#50855a" stroke="#3d5743" stroke-width="3" stroke-miterlimit="10"/></g></g><g id="eNJyEhZPsrl24_tr" transform="translate(406.224397,160.044299) rotate(0)"><g transform="translate(-406.224397,-160.044297)"><path d="M390.01,58.97c-2.42-.6-32.63,37.46-11.48,72.51c9.06,15.11,25.38,15.11,25.38,15.11s1.21,3.62,1.21,7.85l-.6,6.04c2.42,3.62,3.63.6,3.63.6s-1.21-3.02-1.21-6.65s0-7.85,1.21-7.85c4.83-1.81,18.73-5.44,18.73-27.19c0-15.11-3.02-21.75-7.25-28.4-7.25-12.69-12.08-14.5-23.56-21.15l-5.44-4.23c-1.21-3.62,0-6.04-.6-6.65v0l-.02.01Z" fill="#50855a" stroke="#3d5743" stroke-width="3" stroke-miterlimit="10"/></g></g><g id="eNJyEhZPsrl26_tr" transform="translate(457.112545,116.94074) rotate(0)"><g transform="translate(-457.112544,-116.94074)"><path d="M455.04,102.49c1.21.6,1.21,5.44,0,9.06-.6,4.23-2.42,7.25-2.42,7.25s1.21,3.62,4.23,0v-6.65c.6-4.83,2.42-9.06,2.42-9.06s9.67,1.21,19.34-3.62c0,1.81.6,3.62.6,4.83s-5.44,4.83-9.67,6.65c-5.44,1.81-9.67,2.42-9.67,2.42s-3.02,3.62,3.02,4.83c.6,0,4.83-3.62,7.85-4.83c5.44-2.42,11.48-3.62,11.48-3.62s10.27,22.36,36.25,24.77c61.03,6.04,92.45-58.01,90.63-61.03-.6-1.21-3.63,2.42-9.67,2.42-3.02,0-6.65-2.42-9.06-4.23-16.31-11.48-21.75-16.31-42.9-18.13-11.48-.6-22.36-1.21-42.3,8.46-.6.6-1.21.6-1.81,1.21c4.83-30.21-13.9-58.01-16.31-57.4-1.21,0,0,3.62-2.42,7.25l-6.65,4.23c-13.9,6.04-19.34,7.85-29,21.15-4.83,7.25-9.67,14.5-11.48,30.82-3.02,24.77,12.69,30.21,17.52,33.23v0l.02-.01Z" fill="#50855a" stroke="#3d5743" stroke-width="3" stroke-miterlimit="10"/></g></g><g id="eNJyEhZPsrl28_tr" transform="translate(425.830029,151.106437) rotate(0)"><g transform="translate(-425.830025,-151.106435)"><path d="M542.89,178.97c4.83-.6,7.85,2.42,8.46,1.81c1.81-2.42-27.79-55.59-79.15-48.34-21.75,3.02-29.61,22.36-29.61,22.36s-4.83-.6-9.67-2.42l-6.65-3.62c-4.83,1.21-2.42,4.23-2.42,4.23s3.63,0,8.46,1.21c4.23,1.21,8.46,3.63,8.46,4.83c0,6.04-3.02,24.17,22.96,35.05c17.52,7.25,26.59,6.65,36.25,5.44c18.13-2.42,22.36-6.65,35.65-16.92c1.81-1.21,4.83-3.02,7.25-3.63v0h.01Z" fill="#50855a" stroke="#3d5743" stroke-width="3" stroke-miterlimit="10"/></g></g><g id="eNJyEhZPsrl30_tr" transform="translate(389.506302,183.47902) rotate(0)"><g transform="translate(-389.506302,-183.47902)"><path d="M390.29,228.46c6.65,13.29,12.69,17.52,18.73,21.75c12.08,7.85,16.92,7.25,30.21,8.46l6.65,1.81c3.02,2.42,3.02,5.44,4.23,5.44c2.42-.6,12.08-47.73-22.96-69.49-14.5-9.06-29.61-1.81-29.61-1.81s-2.42-3.02-4.83-6.65l-1.81-5.44c-3.63-1.81-3.63,1.21-3.63,1.21s2.42,1.81,4.23,5.44c1.81,3.02,3.02,6.65,2.42,7.25-2.42,3.02-13.29,12.69-3.63,32.02v0v.01Z" fill="#50855a" stroke="#3d5743" stroke-width="3" stroke-miterlimit="10"/></g></g><g id="eNJyEhZPsrl32_tr" transform="translate(334.84845,228.39537) rotate(0)"><g transform="translate(-334.84845,-228.39537)"><path d="M339.28,268.91c12.69,38.67,61.03,42.3,62.24,39.88.6-.6-2.42-1.81-4.23-5.44v-6.65c4.23-20.54,3.63-27.19-2.42-37.46c0,0-4.23,3.02-9.06,2.42-3.63-.6-6.65-2.42-8.46-4.23s-3.02-4.83-2.42-9.67c.6-5.44,4.23-7.85,4.23-7.85-16.31-14.5-27.19-3.63-31.42-1.81l-6.65-4.23c-2.42-2.42-4.23-5.44-4.23-5.44s-3.02-.6-1.81,3.02l4.83,3.63c3.02,3.02,5.44,6.04,5.44,6.04s-11.48,11.48-6.04,27.79v0Z" fill="#50855a" stroke="#3d5743" stroke-width="3" stroke-miterlimit="10"/></g></g><g id="eNJyEhZPsrl34_tr" transform="translate(418.360229,379.935699) rotate(0)"><g transform="translate(-418.360228,-379.935699)"><path d="M375.9,379.35c16.92,3.63,28.4-8.46,28.4-8.46s3.63,1.81,6.65,4.23l4.23,4.23c4.23.6,3.02-2.42,3.02-2.42s-3.02-1.21-6.04-3.63c-2.42-2.42-5.44-5.44-4.83-6.04c1.81-4.23,9.06-17.52-7.25-32.02-10.88-10.27-18.13-12.08-25.38-13.9-13.9-3.63-18.73-1.21-31.42,3.02l-6.65.6c-3.63-1.21-4.83-4.23-5.44-3.63-3.02,1.81,4.23,49.55,44.71,58.01v0v.01Z" fill="#50855a" stroke="#3d5743" stroke-width="3" stroke-miterlimit="10"/></g></g><g id="eNJyEhZPsrl36_tr" transform="translate(474.327409,355.437073) rotate(0)"><g transform="translate(-474.327406,-355.437071)"><path d="M472.6,354c0,0,1.21,3.62,4.23,0v-6.65c.6-4.83,2.42-8.46,2.42-8.46s19.94,3.02,32.02-12.69c29-36.86,0-83.99-2.42-83.99-1.21,0,0,3.63-2.42,7.25l-6.65,4.23c-13.9,6.04-19.94,7.25-29.61,20.54-5.44,6.65-9.67,13.9-12.08,30.82-3.63,24.77,12.08,30.82,16.92,33.23.6.6.6,5.44,0,9.06s-2.42,6.65-2.42,6.65v0l.01.01Z" fill="#50855a" stroke="#3d5743" stroke-width="3" stroke-miterlimit="10"/></g></g><g id="eNJyEhZPsrl38_tr" transform="translate(521.397644,338.468628) rotate(0)"><g transform="translate(-521.397642,-338.468625)"><path d="M657.42,225.21c-1.21-.6-2.42,4.23-9.06,6.65-3.02,1.21-7.85.6-11.48,0-21.75-4.23-30.21-7.25-53.17,1.21-12.08,4.23-23.56,9.06-39.88,27.79-24.17,27.79-10.27,47.73-6.04,54.99.6,1.21-3.02,7.25-7.25,11.48-4.23,4.83-9.06,7.25-9.06,7.25s-1.21,5.44,5.44,3.63c.6,0,3.63-6.04,5.44-8.46c4.83-4.83,10.27-8.46,10.27-8.46s21.15,18.13,48.94,9.06c66.47-21.75,69.49-102.72,65.86-105.14v0h-.01Z" fill="#50855a" stroke="#3d5743" stroke-width="3" stroke-miterlimit="10"/></g></g><g id="eNJyEhZPsrl40_tr" transform="translate(491.298706,355.437075) rotate(0)"><g transform="translate(-491.298706,-355.437075)"><path d="M532.76,348.85c-17.52-1.21-27.19,12.08-27.19,12.08s-3.63-1.21-7.25-3.63l-4.23-4.23c-4.23,0-2.42,3.02-2.42,3.02s3.02.6,6.04,2.42c3.02,1.81,6.04,4.83,6.04,5.44-1.21,4.83-6.65,18.13,10.88,30.82c12.08,8.46,19.34,9.67,26.59,10.88c14.5,1.81,18.73-1.21,30.82-6.65l6.65-1.81c4.23.6,5.44,3.63,6.04,3.02c1.81-1.21-10.88-47.73-51.96-51.36v0h-.01Z" fill="#50855a" stroke="#3d5743" stroke-width="3" stroke-miterlimit="10"/></g></g><g id="eNJyEhZPsrl42_tr" transform="translate(394.15459,400.116039) rotate(0)"><g transform="translate(-394.15459,-400.116033)"><path d="M451.79,386.29c-25.98,0-38.67,21.15-38.67,21.15s-5.44-1.81-10.88-4.23c-2.42-1.21-6.04-5.44-7.25-5.44-6.04.6-3.63,4.23-3.63,4.23s4.83.6,9.67,3.02c4.83,2.42,9.67,6.04,9.06,7.25-1.21,7.25-7.25,27.79,20.54,44.11c18.73,10.88,30.21,12.08,41.09,12.08c21.15.6,27.19-4.23,44.71-13.9c3.02-1.81,6.65-3.63,9.67-3.63c6.04.6,8.46,4.23,9.06,3.02c3.02-1.21-22.36-68.28-83.38-67.67v0l.01.01Z" fill="#50855a" stroke="#3d5743" stroke-width="3" stroke-miterlimit="10"/></g></g><g id="eNJyEhZPsrl44_tr" transform="translate(379.36264,410.709503) rotate(0)"><g transform="translate(-379.362633,-410.709494)"><path d="M379.66,428.46c-.6-.6-1.21-5.44-.6-9.06.6-4.23,2.42-7.25,2.42-7.25s-1.21-3.63-4.23,0v6.65c-.6,4.83-2.42,9.06-2.42,9.06s-19.94-1.81-31.42,13.9c-27.79,38.07,3.63,83.99,6.04,83.99c1.21,0-.6-3.63,2.42-7.25l6.65-4.23c13.9-6.65,19.34-7.85,28.4-21.15c4.83-7.25,9.06-14.5,10.88-31.42c2.42-25.38-13.29-30.82-18.13-33.23v0l-.01-.01Z" fill="#50855a" stroke="#3d5743" stroke-width="3" stroke-miterlimit="10"/></g></g></svg>
