<?xml version="1.0" encoding="utf-8"?>
<!-- Generator: Adobe Illustrator 27.9.0, SVG Export Plug-In . SVG Version: 6.00 Build 0)  -->
<svg version="1.1" id="Слой_1" xmlns="http://www.w3.org/2000/svg" xmlns:xlink="http://www.w3.org/1999/xlink" x="0px" y="0px"
	 viewBox="0 0 165 760" style="enable-background:new 0 0 165 760;" xml:space="preserve">
<style type="text/css">
	.st0{fill:none;stroke:#5E5E5E;stroke-width:6;stroke-linecap:round;stroke-linejoin:round;}
	.st1{fill:none;stroke:#2E2E30;stroke-width:15;stroke-linecap:round;stroke-linejoin:round;}
	.st2{fill:#898890;stroke:#3E3D43;stroke-width:15;stroke-linecap:round;stroke-linejoin:round;}
	.st3{fill:#FFCE56;stroke:#4C241D;stroke-width:15;stroke-linecap:round;stroke-linejoin:round;}
	.st4{fill:#898890;stroke:#57565C;stroke-width:15;stroke-linecap:round;stroke-linejoin:round;}
	.st5{fill:none;stroke:#FFFFFF;stroke-width:15;stroke-linecap:round;stroke-linejoin:round;}
</style>
<path class="st0" d="M352,476"/>
<path class="st0" d="M376.9,731.2"/>
<g id="_Слой_1">
	<g>
		<ellipse class="st1" cx="82.6" cy="28.3" rx="13.2" ry="20.4"/>
		<rect x="69.3" y="313.4" class="st2" width="26.4" height="407.6"/>
		<path class="st2" d="M60.5,721.1h44c14.6,0,26.4,13.7,26.4,30.5H34.1C34.1,734.7,46,721.1,60.5,721.1L60.5,721.1z"/>
		<polygon class="st3" points="122.1,313.4 42.9,313.4 25.4,140.3 139.7,140.3 		"/>
		<path class="st4" d="M42.9,99.6h79.2c19.4,0,35.2,18.2,35.2,40.7H7.8C7.8,117.8,23.5,99.6,42.9,99.6z"/>
		<path class="st4" d="M78.1,58.9h8.8c19.4,0,35.2,18.2,35.2,40.7H43C43,77.1,58.7,58.9,78.1,58.9z"/>
		<line class="st5" x1="113.3" y1="170.9" x2="104.5" y2="262.5"/>
	</g>
</g>
</svg>
