<?xml version="1.0" encoding="UTF-8"?>
<svg xmlns="http://www.w3.org/2000/svg" viewBox="0 0 1509.68 941.74">
  <defs>
    <style>
      .cls-1, .cls-2, .cls-3, .cls-4, .cls-5, .cls-6, .cls-7, .cls-8, .cls-9, .cls-10, .cls-11, .cls-12 {
        stroke-linecap: round;
        stroke-linejoin: round;
      }

      .cls-1, .cls-8 {
        stroke: #3e3d43;
      }

      .cls-1, .cls-8, .cls-9, .cls-11 {
        fill: #898890;
      }

      .cls-13 {
        fill: #fdb900;
      }

      .cls-13, .cls-14, .cls-15, .cls-16, .cls-17, .cls-18, .cls-19, .cls-20, .cls-21 {
        stroke-width: 0px;
      }

      .cls-2, .cls-16, .cls-6 {
        fill: #ffce56;
      }

      .cls-2, .cls-6 {
        stroke: #4c241d;
      }

      .cls-22 {
        font-family: MyriadPro-Regular, 'Myriad Pro';
        font-size: 12px;
      }

      .cls-3, .cls-4 {
        stroke: #fff;
      }

      .cls-3, .cls-4, .cls-7, .cls-10, .cls-12 {
        fill: none;
      }

      .cls-3, .cls-5, .cls-6, .cls-7, .cls-8, .cls-11 {
        stroke-width: 15px;
      }

      .cls-15 {
        fill: #ffba02;
      }

      .cls-17 {
        fill: #868686;
      }

      .cls-5 {
        fill: #8e9a9b;
        stroke: #8e9a9b;
      }

      .cls-18 {
        fill: #728037;
      }

      .cls-7, .cls-12 {
        stroke: #2e2e30;
      }

      .cls-9, .cls-11 {
        stroke: #57565c;
      }

      .cls-19 {
        fill: #6d581b;
      }

      .cls-10 {
        stroke: #5e5e5e;
        stroke-width: 6px;
      }

      .cls-20 {
        fill: #feb800;
      }

      .cls-21 {
        fill: #eaeaea;
      }
    </style>
  </defs>
  <g id="_Слой_5" data-name="Слой 5">
    <path class="cls-19" d="m693.72,400.77c-3.47-3.84-6.93-7.78-10.4-11.82-.06,0-.12,0-.18,0v-6c-3.62-.03-7.24-.06-10.86-.09v-2.57c3.62.05,7.24.1,10.86.15v-6.64c-3.62-.11-7.24-.22-10.86-.32v-2.57c3.62.13,7.24.26,10.86.39v-5.52c.39.1.78.17,1.18.19.33.02.66,0,.98-.04,1.24-.16,2.31-.72,3.01-1.58.7-.86.93-1.9.67-2.96-.26-1.06-.99-2-2.06-2.65-1.07-.65-2.34-.94-3.58-.81-1.12.12-2.12.59-2.81,1.33-.45.48-.33,1.21.26,1.63.59.42,1.44.37,1.89-.11.3-.32.73-.52,1.22-.58.54-.06,1.09.06,1.55.34.46.28.78.69.89,1.15.11.46.01.92-.29,1.29-.3.37-.76.61-1.3.68-.37.05-.75,0-1.11-.12-10.61-4.82-21.21-9.97-31.82-15.44-5.11-2.75-11.29-1.56-14.08,2.85-2.78-4.8-8.96-7.24-14.05-5.24-10.61,3.96-21.23,8.24-31.84,12.85-.35.11-.74.11-1.11.01-.54-.15-1-.5-1.3-1-.3-.5-.4-1.07-.29-1.63.11-.55.43-1.01.89-1.3.46-.28,1.01-.35,1.55-.2.49.14.92.44,1.22.87.45.64,1.3.81,1.89.38.59-.43.71-1.29.26-1.92-.69-.98-1.69-1.69-2.81-2.01-1.24-.35-2.52-.2-3.58.46-1.07.65-1.8,1.72-2.06,3-.26,1.28-.02,2.62.67,3.77.7,1.15,1.76,1.96,3.01,2.29.33.09.65.14.98.15.4.02.8-.02,1.18-.1v6.71c3.62.13,7.24.26,10.86.39v2.98c-3.62-.11-7.24-.22-10.86-.32v8.07c3.62.05,7.24.1,10.86.15v2.98c-3.62-.03-7.24-.06-10.86-.09v7.3c-.06,0-.12,0-.18,0-3.47,4.96-6.93,10.03-10.4,15.19,0,1.39,0,2.78,0,4.17,2.06-.09,4.12-.18,6.18-.27-.77,1.08-1.18,2.38-1.14,3.71.04,4.27.08,8.53.12,12.79-.19-.03-.4-.01-.61.05-.7.21-1.31.68-1.74,1.31-.47.7-.67,1.54-.56,2.35.11.81.53,1.5,1.16,1.94.53.37,1.15.51,1.77.46.91-.08,1.8-.59,2.38-1.45.34-.5.54-1.07.58-1.66,0-.04,0-.08,0-.12-.05-5.29-.1-10.58-.14-15.87,0,0,0-.02,0-.03-.02-.71.23-1.41.7-1.95.47-.54,1.12-.87,1.81-.92.48-.04.92.12,1.27.44.34.32.54.76.55,1.24.02.63-.47,1.19-1.09,1.24-.2.02-.4-.08-.52-.25-.46-.68-1.38-.82-2.06-.32-.68.5-.86,1.47-.41,2.15.69,1.03,1.83,1.57,3.07,1.47,2.25-.2,4.03-2.22,3.97-4.51-.02-.89-.29-1.73-.76-2.45,27.62-1.19,55.23-2.38,82.85-3.57-.47.64-.73,1.36-.76,2.11-.06,1.94,1.72,3.45,3.97,3.38,1.24-.04,2.38-.61,3.07-1.51.46-.6.27-1.36-.41-1.72-.68-.35-1.6-.15-2.06.45-.12.15-.31.25-.52.25-.62.02-1.1-.4-1.09-.92.01-.4.21-.79.55-1.08.34-.29.8-.46,1.27-.47.69-.01,1.33.2,1.81.6.47.4.72.94.7,1.52,0,0,0,.02,0,.02-.05,4.31-.1,8.62-.14,12.93,0,.03,0,.07,0,.1.04.47.24.91.58,1.26.58.61,1.48.88,2.38.8.62-.05,1.24-.27,1.77-.64.64-.45,1.05-1.06,1.16-1.72.12-.66-.08-1.29-.56-1.79-.43-.44-1.04-.73-1.74-.81-.21-.02-.41,0-.61.04.04-3.43.08-6.86.12-10.29.03-1.08-.37-2.08-1.14-2.89,2.06-.09,4.12-.18,6.18-.27,0-1.09,0-2.18,0-3.28Zm-59.15-38.62c1.36-.68,2.43-1.66,3.18-2.83.75,1.25,1.82,2.35,3.18,3.16-2.12-.11-4.24-.22-6.36-.33Zm5.34,17.68c9.35.13,18.71.26,28.06.39v2.6c-9.35-.08-18.71-.15-28.06-.23,0-.92,0-1.84,0-2.76Zm0-7.32c0-.92,0-1.84,0-2.76,9.35.33,18.71.67,28.06,1v2.6c-9.35-.28-18.71-.56-28.06-.84Zm-.02-19.77c1.96-3.57,6.78-4.64,10.76-2.51,9.84,5.03,19.68,9.79,29.51,14.27-10.55-.54-21.1-1.09-31.66-1.63,1.19-.59,2.16-1.49,2.79-2.61,1.51-2.68.26-6.1-2.77-7.71-1.24-.66-2.65-.85-3.96-.54-1.31.31-2.37,1.09-2.99,2.21-.33.6-.06,1.37.61,1.72.67.35,1.48.15,1.81-.44.3-.53.8-.91,1.43-1.06.63-.15,1.3-.06,1.9.25,1.7.9,2.4,2.83,1.55,4.34-.55.98-1.5,1.69-2.68,1.99-1.17.3-2.43.15-3.55-.42-3.03-1.56-4.28-5.12-2.77-7.85Zm-15.01-4.57c3.96-1.57,8.78.4,10.74,4.27,1.51,2.97.26,6.34-2.77,7.61-1.11.46-2.37.48-3.55.03-1.18-.44-2.13-1.29-2.68-2.39-.84-1.69-.15-3.64,1.55-4.33.59-.24,1.27-.24,1.9,0,.63.25,1.14.7,1.43,1.29.33.66,1.14.97,1.81.7.67-.27.94-1.02.61-1.67-.62-1.22-1.68-2.17-2.99-2.69-1.31-.52-2.72-.54-3.96-.04-3.03,1.22-4.28,4.73-2.77,7.75.63,1.27,1.6,2.32,2.79,3.07-10.55-.54-21.1-1.09-31.66-1.63,9.85-4.27,19.69-8.25,29.54-11.96Zm10.72,21.43c0,.93,0,1.86,0,2.79-9.35-.28-18.71-.56-28.06-.84,0-.99,0-1.97,0-2.96,9.35.33,18.71.67,28.06,1t0,0Zm0,10.18c0,.93,0,1.86,0,2.79-9.35-.08-18.71-.15-28.06-.23,0-.99,0-1.97,0-2.96,9.35.13,18.71.26,28.06.39,0,0,0,0,0,0Zm-37.66,12.85c26.55-.33,53.09-.66,79.64-.99.63.69,1.25,1.37,1.88,2.05-27.8.48-55.6.96-83.39,1.44.63-.84,1.25-1.67,1.88-2.51Zm-6.51,8.71c.7-.95,1.39-1.89,2.09-2.83,29.49-.7,58.99-1.41,88.48-2.11.7.75,1.39,1.49,2.09,2.23-30.89.9-61.77,1.81-92.66,2.71Z"/>
    <path class="cls-18" d="m486,434.01c12.63,1.4,27.33,1.74,43.72.51,14.88-1.12,28.37-3.2,40.14-5.36.61-5.88,1.22-11.71,1.83-17.5-.69-2.62-1.38-5.26-2.06-7.92,0-.05-.3-11.76-14.88-17.07-10.08-3.74-18.87.25-27.32-.11-8.49-.41-12.75-4.98-22.18-3.07-5.36,1.13-10.6,4.18-14.49,9.87-3.61,5.28-4.84,10.94-5.53,14.24-2.38,11.52-.49,21.57.78,26.42Z"/>
    <path class="cls-20" d="m499.29,415.06c-3.75-.42-5.61,3.26-5.48,6.82.17,3.58,2.03,7.27,5.48,6.2,3.45-1.03,5.78-3.32,5.61-6.28-.1-2.2-1.72-6.25-5.61-6.74Z"/>
    <path class="cls-20" d="m514.17,390.18c-3.04-.64-5.48,3.04-5.48,5.79,0,2.73,1.56,7.41,5.48,6.41,3.92-.94,5.14-3.82,5.31-6.49.17-2.6-2.81-5.19-5.31-5.71Z"/>
    <path class="cls-20" d="m531.48,413.75c-.27,3.53,1.42,8.46,5.61,7.37,4.23-1.05,5.61-4.48,5.48-7-.17-2.5-2.81-5.22-5.48-5.93-2.64-.73-5.31,1.37-5.61,5.56,0,0,0,0,0,0Z"/>
    <path class="cls-20" d="m554.24,421.25c.14,2.95,1.42,6.75,5.14,5.45,3.75-1.21,4.19-3.28,4.06-5.53-.17-2.65-2.2-4.41-4.7-4.89-2.5-.52-4.67,1.84-4.5,4.97Z"/>
    <g>
      <g>
        <path class="cls-18" d="m705.02,413.95c11.23.25,28.25-1.05,48.7-5.95,21.96-5.12,34.95-7.84,39-15.83,4.46-8.62-2.96-22.7-14.53-27.68-14.05-5.89-22.65-.96-27.16-.08-5.99,1-9.52-3.04-19.85-2.64-23.01.75-27.13,23.4-27.13,23.41.33,9.62.65,19.21.98,28.76Z"/>
        <path class="cls-13" d="m743.35,376.99c.11,2.58,3.18,5.7,6.8,4.76,3.62-.92,5.07-3.52,4.33-6.33-.73-2.77-4.04-3.95-6.5-3.72-2.42.22-4.76,2.42-4.64,5.28t0,0Z"/>
        <path class="cls-13" d="m772.25,391.07c.7,2.93,2.66,4.55,6.67,3.81,3.98-.73,5.26-3.29,4.89-5.37-.55-3.05-2.86-4.64-6.85-4.12-3.98.53-5.26,3.26-4.71,5.67Z"/>
      </g>
      <path class="cls-15" d="m716.89,396.13c.4,4.01,2.37,6.87,6.81,5.82,4.45-1.04,5.81-3.5,5.53-7.64-.25-3.68-3.2-6.53-7.33-5.47-4.14,1.04-5.29,4.46-5.01,7.29Z"/>
    </g>
  </g>
  <g id="_Слой_2" data-name="Слой 2">
    <path class="cls-5" d="m1495.5,928.91c-446.22.59-1041.78,4.74-1488,5.33v-81.78c356.78-42.22,457.24-86.4,458.67-124.44,2.39-63.72-272.99-109.03-266.67-168.89,5.1-48.25,189.66-72.19,277.33-83.56,142.19-18.44,307.95-20.83,377.66-86.33,7.6-7.14,32.74-30.76,40.12-68.34,2.34-11.93,8.94-45.47-12.44-71.11-13.11-15.73-30.63-21.14-39.11-23.11,37.93-.59,75.85-1.19,113.78-1.78,18.14,16.33,38.24,40.35,40.89,71.11,9.08,105.4-198.58,157.81-204.44,273.78-3.78,74.79,81.67,138.04,112,160,214.94,155.6,517.18,11.07,581.77,130.73,6.83,12.65,14.14,34.06,8.46,68.38Z"/>
    <path class="cls-10" d="m3.94,842.68c77.6-7.63,137.67-16.01,177.78-22.22,21.38-3.31,49.76-7.97,83.37-14.32,39.85-7.53,59.78-11.3,77.29-16.2,38.88-10.88,111.69-31.23,115.79-59.26,8.3-56.78-270.34-111.03-264.96-172.02,4.67-52.96,220.85-80.63,240.08-83.1,42.02-5.38,136.04-13.91,214.22-24.89,12.48-1.75,28.17-4.43,59.56-9.78,49.46-8.43,61.87-11.33,76.44-16.89,12.01-4.58,31.68-12.09,50.67-27.56,25.57-20.84,68.28-71.31,51.56-119.11-9.61-27.46-35.69-41.94-48.89-48"/>
    <path class="cls-10" d="m1503.5,934.24c.91-3.16,2.03-7.74,2.67-13.33,2.36-20.74-4-36.96-8.11-47.11-4.73-11.67-13.56-33.47-35.44-49.78-4.32-3.22-17.67-12.57-53.6-19.5-35.32-6.81-63.17-5.63-77.87-5.04,0,0-28.21,4.47-114.75,3.21-78.1-1.14-120.56-1.65-175.11-17.78-58.97-17.44-103.22-45.52-125.33-59.56-25.03-15.88-44.85-31.2-59.01-42.96-9.05-7.78-21.13-19.62-32.54-36.15-8.73-12.65-18.4-25.94-22.22-43.56-9.43-43.47,15.81-82.39,25.78-97.78,12.94-19.96,27.31-32.86,38.2-42.7,18.05-16.32,24.99-18.12,56.03-43.07,17.87-14.37,26.8-21.56,37.67-33.03,13.87-14.65,27.01-28.74,36.11-50.97,4.09-10,11.87-28.99,8.59-52.3-5.2-37.08-34.65-58.73-42.04-63.85"/>
  </g>
  <g id="_Слой_3" data-name="Слой 3">
    <polygon class="cls-21" points="1338.11 195.75 1248.73 283.46 1427.49 283.46 1338.11 195.75"/>
    <rect class="cls-21" x="1277.85" y="255.87" width="117.33" height="100.59"/>
    <path class="cls-21" d="m1475.86,750.63c-90.13-15.73-180.25-31.47-270.38-47.2,0-105.3,0-210.6,0-315.9,90.13-15.73,180.25-31.47,270.38-47.2,0,136.77,0,273.54,0,410.3Z"/>
    <path class="cls-21" d="m1347.1,534.31c-46.84-6.9-93.68-13.81-140.52-20.71v-138.62c46.84-6.9,93.68-13.81,140.52-20.71,0,60.01,0,120.03,0,180.04Z"/>
    <path class="cls-16" d="m997.75,621.77c-15.25-1.57-30.5-3.15-45.74-4.72v-62.73c15.25-1.57,30.5-3.15,45.74-4.72v72.17Z"/>
    <g>
      <path class="cls-21" d="m1184.76,694.42c-85.03-19.75-170.06-37.96-255.09-54.33,0-69.09,0-138.19,0-207.28,85.03-16.37,170.06-34.58,255.09-54.33v315.94Z"/>
      <rect class="cls-16" x="1033.29" y="540.78" width="44.53" height="60.12"/>
      <rect class="cls-17" x="1397.25" y="583.2" width="53.33" height="89.58"/>
      <path class="cls-17" d="m1160.91,653.49c-14.75-1.42-29.5-2.84-44.26-4.26,0-26.99,0-53.98,0-80.97,14.75-1.42,29.5-2.84,44.26-4.26v89.49Z"/>
      <path class="cls-17" d="m997.75,624.28c-14.75-1.17-29.5-2.33-44.26-3.5,0-22.14,0-44.29,0-66.43,14.75-1.17,29.5-2.33,44.26-3.5v73.42Z"/>
      <path class="cls-17" d="m999.38,525.12c-15.25-1.59-30.5-3.18-45.74-4.78v-63.44c15.25-1.59,30.5-3.18,45.74-4.78v72.99Z"/>
      <path class="cls-16" d="m1077.82,498.37c-15.65-1.09-31.29-2.18-46.94-3.27v-43.42c15.65-1.09,31.29-2.18,46.94-3.27v49.95Z"/>
      <path class="cls-16" d="m1160.91,532.92c-15.25-2.05-30.5-4.09-45.74-6.14,0-27.19,0-54.38,0-81.57,15.25-2.05,30.5-4.09,45.74-6.14v93.85Z"/>
      <g id="house-shape-PhotoshopSupply.com">
        <path class="cls-14" d="m1077.79,590.69c0-9.33,0-18.65,0-27.98,0-8.54-6.7-16.14-15.79-18.7,0,14.93,0,29.86,0,44.79,5.26.63,10.53,1.26,15.79,1.89Zm-24.76-2.96c0-14.87,0-29.73,0-44.6-10.04.84-17.7,7.49-17.7,16.05v26.44c5.9.7,11.8,1.4,17.7,2.11Zm131.74-167.62c-83.82,7.56-167.63,15.08-251.45,22.35,0,64.21,0,128.42,0,192.64,30.97,6.53,61.94,13.14,92.91,19.83,0-33.88,0-67.76,0-101.64,0-13.41,13.58-23.8,30.33-23.2,16.75.6,30.33,13.05,30.33,27.81,0,36.73,0,73.46,0,110.19,32.63,7.11,65.25,14.28,97.87,21.46,0-89.81,0-179.62,0-269.43Zm-18.16,16.53c0,22.56,0,45.12,0,67.68,0,9.99,0,19.98,0,29.97-17.95-.76-35.9-1.51-53.85-2.26,0-9.36,0-18.72,0-28.08,0-2.44,0-4.88,0-7.33,0-18.69,0-37.38,0-56.08,17.95-1.3,35.9-2.6,53.85-3.9Zm-23.28,88.77c5.86.19,11.73.38,17.59.57v-21.36c-5.86-.04-11.73-.09-17.59-.13,0,6.97,0,13.95,0,20.92Zm0-28.86c5.86-.01,11.73-.03,17.59-.04v-21.01c-5.86.16-11.73.32-17.59.48,0,6.86,0,13.71,0,20.57Zm0-29.36c5.86-.22,11.73-.44,17.59-.66v-21.36c-5.86.37-11.73.74-17.59,1.11,0,6.97,0,13.95,0,20.92Zm-24.98,57.41c5.86.19,11.73.38,17.59.57v-20.73c-5.86-.04-11.73-.09-17.59-.13,0,6.76,0,13.53,0,20.29Zm0-27.99c5.86-.01,11.73-.03,17.59-.04v-20.39c-5.86.16-11.73.32-17.59.48,0,6.65,0,13.3,0,19.95Zm0-28.48c5.86-.22,11.73-.44,17.59-.66v-20.73c-5.86.37-11.73.74-17.59,1.11,0,6.76,0,13.53,0,20.29Zm48.26,163.65c0,9.99,0,19.98,0,29.97-17.95-3.44-35.9-6.88-53.85-10.31,0-9.36,0-18.72,0-28.08,0-2.44,0-4.88,0-7.33,0-18.69,0-37.38,0-56.08,17.95,1.38,35.9,2.76,53.85,4.15,0,22.56,0,45.12,0,67.68Zm-30.67-62.17c-5.86-.51-11.73-1.01-17.59-1.52,0,6.76,0,13.53,0,20.29,5.86.65,11.73,1.31,17.59,1.96v-20.73Zm0,29.44c-5.86-.72-11.73-1.43-17.59-2.15,0,6.65,0,13.3,0,19.95,5.86.86,11.73,1.72,17.59,2.59v-20.39Zm0,28.26c-5.86-.92-11.73-1.84-17.59-2.75,0,6.76,0,13.53,0,20.29,5.86,1.06,11.73,2.13,17.59,3.2v-20.73Zm24.98-55.54c-5.86-.51-11.73-1.02-17.59-1.52,0,6.97,0,13.95,0,20.92,5.86.66,11.73,1.31,17.59,1.97v-21.36Zm0,30.34c-5.86-.72-11.73-1.44-17.59-2.16,0,6.86,0,13.71,0,20.57,5.86.86,11.73,1.73,17.59,2.59v-21.01Zm0,29.12c-5.86-.92-11.73-1.84-17.59-2.76,0,6.97,0,13.95,0,20.92,5.86,1.07,11.73,2.14,17.59,3.2v-21.36Zm-131.25-127.85v-56.86c17.95-1.28,35.9-2.57,53.85-3.87,0,20.36,0,40.73,0,61.09,0,.01,0,.03,0,.04-17.95-.12-35.9-.24-53.85-.37v-.04Zm30.57-6.64c5.86-.01,11.73-.03,17.59-.04,0-6.32,0-12.64,0-18.95-5.86.16-11.73.32-17.59.47,0,6.17,0,12.35,0,18.52Zm0-26.43c5.86-.22,11.73-.44,17.59-.66,0-6.42,0-12.85,0-19.27-5.86.37-11.73.73-17.59,1.1,0,6.28,0,12.56,0,18.83Zm-24.98,26.49c5.86-.01,11.73-.03,17.59-.04,0-6.11,0-12.23,0-18.34-5.86.16-11.73.31-17.59.47,0,5.97,0,11.94,0,17.91Zm0-25.56c5.86-.22,11.73-.44,17.59-.66,0-6.22,0-12.43,0-18.65-5.86.37-11.73.73-17.59,1.09,0,6.07,0,12.14,0,18.21Zm-85.67,127.04c0-1.95,0-3.9,0-5.86,0-14.94,0-29.87,0-44.81,17.95,1.33,35.9,2.67,53.85,4.03v79.1c-17.95-3.36-35.9-6.71-53.85-10.02,0-7.48,0-14.96,0-22.44Zm30.57,21.75c5.86,1.04,11.73,2.08,17.59,3.12v-17.28c-5.86-.9-11.73-1.79-17.59-2.69,0,5.62,0,11.23,0,16.85Zm0-23.24c5.86.84,11.73,1.68,17.59,2.52v-16.99c-5.86-.7-11.73-1.4-17.59-2.1,0,5.52,0,11.05,0,16.57Zm0-23.65c5.86.64,11.73,1.28,17.59,1.92v-17.28c-5.86-.5-11.73-.99-17.59-1.48,0,5.62,0,11.23,0,16.85Zm-24.98,42.48c5.86,1.03,11.73,2.06,17.59,3.1,0-5.56,0-11.11,0-16.67-5.86-.89-11.73-1.78-17.59-2.67,0,5.41,0,10.82,0,16.24Zm0-22.4c5.86.83,11.73,1.67,17.59,2.51,0-5.46,0-10.93,0-16.39-5.86-.7-11.73-1.39-17.59-2.08,0,5.32,0,10.64,0,15.97Zm0-22.79c5.86.63,11.73,1.27,17.59,1.9,0-5.56,0-11.11,0-16.67-5.86-.49-11.73-.98-17.59-1.47,0,5.41,0,10.83,0,16.24Zm-5.59-67.58c0-1.95,0-3.9,0-5.86,0-14.94,0-29.87,0-44.81,17.95-1.26,35.9-2.53,53.85-3.8v79.1c-17.95-.74-35.9-1.47-53.85-2.19,0-7.48,0-14.96,0-22.44Zm30.57,17.32c5.86.18,11.73.37,17.59.56v-17.28c-5.86-.04-11.73-.08-17.59-.12,0,5.62,0,11.23,0,16.85Zm0-23.24c5.86-.01,11.73-.03,17.59-.04v-16.99c-5.86.16-11.73.31-17.59.47,0,5.52,0,11.05,0,16.57Zm0-23.65c5.86-.22,11.73-.43,17.59-.65v-17.28c-5.86.36-11.73.72-17.59,1.08,0,5.62,0,11.23,0,16.85Zm-24.98,46.11c5.86.18,11.73.37,17.59.55,0-5.56,0-11.11,0-16.67-5.86-.04-11.73-.08-17.59-.12,0,5.41,0,10.82,0,16.24Zm0-22.4c5.86-.01,11.73-.03,17.59-.04,0-5.46,0-10.93,0-16.39-5.86.16-11.73.31-17.59.46,0,5.32,0,10.64,0,15.97Zm0-22.79c5.86-.21,11.73-.43,17.59-.65,0-5.56,0-11.11,0-16.67-5.86.36-11.73.72-17.59,1.08,0,5.41,0,10.83,0,16.24Zm239.41-57.8c0,95.86,0,191.71,0,287.57-90.37-21.16-180.74-42.21-271.12-62.41,0-66.74,0-133.48,0-200.22-4.58.41-9.15.82-13.73,1.23,10.88-29.05,21.76-59.57,32.63-91.56,76.14-17.15,152.29-34.87,228.43-52.68,13.6,36.92,27.19,75.75,40.79,116.49-5.67.53-11.34,1.06-17.01,1.59Z"/>
      </g>
      <text class="cls-22" transform="translate(1068.9 379.09)"><tspan x="0" y="0">EAEAEA</tspan></text>
      <rect class="cls-17" x="1230.83" y="485.49" width="59.17" height="54.68"/>
      <rect class="cls-17" x="1235.17" y="404.96" width="53.33" height="53.33"/>
      <rect class="cls-17" x="1314.77" y="583.2" width="53.33" height="78.67"/>
      <rect class="cls-17" x="1314.77" y="402.8" width="53.33" height="53.33"/>
    </g>
    <g>
      <path class="cls-16" d="m1289.99,651.08c-18.77-1.81-37.54-3.63-56.31-5.44,0-24.11,0-48.21,0-72.32,18.77-1.81,37.54-3.63,56.31-5.44,0,27.73,0,55.47,0,83.2Z"/>
      <path class="cls-16" d="m1368.83,550.24c-18.77-1.31-37.54-2.63-56.31-3.94,0-17.46,0-34.91,0-52.37,18.77-1.31,37.54-2.63,56.31-3.94,0,20.08,0,40.17,0,60.25Z"/>
      <path class="cls-16" d="m1452.25,550.24c-18.77-1.31-37.54-2.63-56.31-3.94,0-17.46,0-34.91,0-52.37,18.77-1.31,37.54-2.63,56.31-3.94,0,20.08,0,40.17,0,60.25Z"/>
      <path class="cls-16" d="m1452.25,460.97c-18.77-1.31-37.54-2.63-56.31-3.94,0-17.46,0-34.91,0-52.37,18.77-1.31,37.54-2.63,56.31-3.94,0,20.08,0,40.17,0,60.25Z"/>
      <path class="cls-16" d="m1366.27,322.43c-18.77-1.31-37.54-2.63-56.31-3.94,0-17.46,0-34.91,0-52.37,18.77-1.31,37.54-2.63,56.31-3.94,0,20.08,0,40.17,0,60.25Z"/>
      <g id="house-shape-PhotoshopSupply.com-2" data-name="house-shape-PhotoshopSupply.com">
        <path class="cls-14" d="m1482.47,355.11c0,133.92,0,267.84,0,401.76-93.76-16.44-187.52-32.89-281.27-49.33v-335.84c-5.7.34-11.4.67-17.1,1.01,13.11-35.48,26.22-71.93,39.34-109.34,16.39-2.17,32.78-4.34,49.17-6.51,21.31-24.34,42.61-49.58,63.92-75.75,21.31,18.69,42.61,38.29,63.92,58.81,16.39-2.17,32.78-4.34,49.17-6.51,16.39,39.05,32.78,79.3,49.17,120.75-5.44.32-10.87.64-16.31.96Zm-114.39,282.41c0-10.23,0-20.46,0-30.69,0-9.35-8.08-17.89-19.03-21.02,0,16.52,0,33.04,0,49.55,6.34.72,12.69,1.44,19.03,2.16Zm-29.85-3.38c0-16.53,0-33.06,0-49.6-12.1.6-21.33,7.84-21.33,17.47,0,9.9,0,19.8,0,29.71,7.11.81,14.22,1.61,21.33,2.42Zm-125.18,64.94c30.96,5.2,61.92,10.41,92.88,15.61v-119.53c0-15.2,16.37-26.39,36.56-25,20.19,1.39,36.56,15.54,36.56,31.61,0,41.74,0,83.47,0,125.21,30.52,5.13,61.05,10.26,91.57,15.39v-386.02c-85.85,5.03-171.71,10.07-257.56,15.1v327.62Zm123.47-498.75c-18.03,22.16-36.06,43.66-54.09,64.5,0,30.5,0,61.01,0,91.51,36.06-2.38,72.11-4.75,108.17-7.13,0-32.68,0-65.37,0-98.05-18.03-17.61-36.06-34.55-54.09-50.83Zm-30.12,64.69c21.64-2.69,43.27-5.38,64.91-8.07v66.65c-21.64,1.79-43.27,3.58-64.91,5.37,0-21.32,0-42.63,0-63.95Zm36.85,53.68c7.07-.62,14.13-1.23,21.2-1.85,0-7.03,0-14.06,0-21.09-7.07.71-14.13,1.42-21.2,2.13v20.81Zm0-29.55c7.07-.75,14.13-1.5,21.2-2.25,0-7.03,0-14.06,0-21.09-7.07.84-14.13,1.69-21.2,2.53v20.81Zm-30.11,32.18c7.07-.62,14.13-1.23,21.2-1.85v-20.69c-7.07.71-14.13,1.42-21.2,2.13v20.41Zm0-28.99c7.07-.75,14.13-1.5,21.2-2.25v-20.69c-7.07.84-14.13,1.69-21.2,2.53v20.41Zm78.5,193.5c21.64.4,43.27.79,64.91,1.19v70.19c-21.64-1.29-43.27-2.59-64.91-3.88,0-22.5,0-45,0-67.5Zm36.85,62.09c7.07.39,14.13.78,21.2,1.17v-22.22c-7.07-.3-14.13-.59-21.2-.89v21.94Zm0-31.15c7.07.26,14.13.52,21.2.77v-22.22c-7.07-.16-14.13-.33-21.2-.49v21.94Zm-30.11,29.49c7.07.39,14.13.78,21.2,1.17,0-7.27,0-14.55,0-21.82-7.07-.3-14.13-.59-21.2-.89,0,7.18,0,14.36,0,21.54Zm0-30.59c7.07.26,14.13.52,21.2.77,0-7.27,0-14.55,0-21.82-7.07-.16-14.13-.33-21.2-.49,0,7.18,0,14.36,0,21.54Zm-6.74-119.38c21.64-.8,43.27-1.6,64.91-2.39v70.19c-21.64-.1-43.27-.2-64.91-.3,0-22.5,0-45,0-67.5Zm36.85,60.06c7.07,0,14.13,0,21.2,0v-22.22c-7.07.09-14.13.19-21.2.28v21.94Zm0-31.15c7.07-.13,14.13-.26,21.2-.4v-22.22c-7.07.23-14.13.45-21.2.68v21.94Zm-30.11,31.15c7.07,0,14.13,0,21.2,0,0-7.27,0-14.55,0-21.82-7.07.09-14.13.19-21.2.28,0,7.18,0,14.36,0,21.54Zm0-30.59c7.07-.13,14.13-.26,21.2-.4,0-7.27,0-14.55,0-21.82-7.07.23-14.13.45-21.2.68,0,7.18,0,14.36,0,21.54Zm57.99,225.13v31.08c-21.64-2.89-43.27-5.79-64.91-8.68,0-9.96,0-19.92,0-29.89,0-2.6,0-5.2,0-7.8,0-19.9,0-39.79,0-59.69,21.64,1.6,43.27,3.19,64.91,4.79v70.19Zm-36.96-64.63c-7.07-.56-14.13-1.11-21.2-1.67v21.54c7.07.65,14.13,1.3,21.2,1.95,0-7.27,0-14.54,0-21.82Zm0,30.98c-7.07-.69-14.13-1.38-21.2-2.07v21.18c7.07.78,14.13,1.56,21.2,2.34,0-7.15,0-14.3,0-21.45Zm0,29.73c-7.07-.82-14.13-1.63-21.2-2.45v21.54c7.07.91,14.13,1.82,21.2,2.73,0-7.27,0-14.55,0-21.82Zm30.11-58.34c-7.07-.56-14.13-1.11-21.2-1.67,0,7.31,0,14.62,0,21.93,7.07.65,14.13,1.3,21.2,1.95,0-7.41,0-14.81,0-22.21Zm0,31.55c-7.07-.69-14.13-1.38-21.2-2.07,0,7.19,0,14.38,0,21.57,7.07.78,14.13,1.56,21.2,2.34,0-7.28,0-14.56,0-21.84Zm0,30.28c-7.07-.82-14.13-1.63-21.2-2.45,0,7.31,0,14.62,0,21.94,7.07.91,14.13,1.82,21.2,2.73,0-7.41,0-14.81,0-22.22Zm-141.3-163.7c21.64.43,43.27.86,64.91,1.29,0,22.24,0,44.48,0,66.73-21.64-1.33-43.27-2.66-64.91-3.99v-64.03Zm36.85,59.06c7.07.4,14.13.8,21.2,1.2,0-7.04,0-14.08,0-21.12-7.07-.31-14.13-.62-21.2-.92v20.84Zm0-29.59c7.07.27,14.13.54,21.2.81,0-7.04,0-14.08,0-21.12-7.07-.18-14.13-.35-21.2-.53v20.84Zm-30.11,27.88c7.07.4,14.13.8,21.2,1.2v-20.72c-7.07-.31-14.13-.62-21.2-.92,0,6.81,0,13.62,0,20.44Zm0-29.02c7.07.27,14.13.54,21.2.81v-20.72c-7.07-.18-14.13-.35-21.2-.53,0,6.81,0,13.62,0,20.44Zm-6.74-115.71c21.64-.8,43.27-1.6,64.91-2.39,0,22.24,0,44.48,0,66.73-21.64-.1-43.27-.2-64.91-.3v-64.03Zm36.85,56.97c7.07,0,14.13,0,21.2,0,0-7.04,0-14.08,0-21.12-7.07.09-14.13.19-21.2.28v20.84Zm0-29.59c7.07-.13,14.13-.26,21.2-.4,0-7.04,0-14.08,0-21.12-7.07.23-14.13.45-21.2.68v20.84Zm-30.11,29.58c7.07,0,14.13,0,21.2,0v-20.72c-7.07.09-14.13.19-21.2.28,0,6.81,0,13.63,0,20.44Zm0-29.02c7.07-.13,14.13-.26,21.2-.4v-20.72c-7.07.23-14.13.45-21.2.68,0,6.81,0,13.63,0,20.44Zm-85.41,55.56c21.64.4,43.27.79,64.91,1.19,0,21.15,0,42.3,0,63.46-21.64-1.29-43.27-2.59-64.91-3.88v-60.76Zm36.85,56.09c7.07.39,14.13.78,21.2,1.17,0-6.69,0-13.38,0-20.08-7.07-.3-14.13-.59-21.2-.89v19.8Zm0-28.11c7.07.26,14.13.52,21.2.77,0-6.69,0-13.38,0-20.08-7.07-.16-14.13-.33-21.2-.49v19.8Zm-30.11,26.45c7.07.39,14.13.78,21.2,1.17,0-6.56,0-13.12,0-19.68-7.07-.3-14.13-.59-21.2-.89,0,6.47,0,12.93,0,19.4Zm0-27.55c7.07.26,14.13.52,21.2.77,0-6.56,0-13.12,0-19.68-7.07-.16-14.13-.33-21.2-.49,0,6.47,0,12.93,0,19.4Zm-6.74-107.49c21.64-.8,43.27-1.6,64.91-2.39,0,21.15,0,42.3,0,63.46-21.64-.1-43.27-.2-64.91-.3v-60.76Zm36.85,54.06c7.07,0,14.13,0,21.2,0,0-6.69,0-13.38,0-20.08-7.07.09-14.13.19-21.2.28v19.8Zm0-28.11c7.07-.13,14.13-.26,21.2-.4,0-6.69,0-13.38,0-20.08-7.07.23-14.13.45-21.2.68v19.8Zm-30.11,28.11c7.07,0,14.13,0,21.2,0,0-6.56,0-13.12,0-19.68-7.07.09-14.13.19-21.2.28,0,6.47,0,12.93,0,19.4Zm0-27.55c7.07-.13,14.13-.26,21.2-.4,0-6.56,0-13.12,0-19.68-7.07.23-14.13.45-21.2.68,0,6.47,0,12.93,0,19.4Zm58,203.42v28.1c-21.64-2.89-43.27-5.79-64.91-8.68,0-8.97,0-17.94,0-26.9,0-2.34,0-4.68,0-7.02,0-17.91,0-35.82,0-53.73,21.64,1.6,43.27,3.19,64.91,4.79v63.45Zm-36.96-58.71c-7.07-.56-14.13-1.11-21.2-1.67,0,6.47,0,12.93,0,19.4,7.07.65,14.13,1.3,21.2,1.95v-19.68Zm0,27.94c-7.07-.69-14.13-1.38-21.2-2.07,0,6.36,0,12.71,0,19.07,7.07.78,14.13,1.56,21.2,2.34v-19.35Zm0,26.82c-7.07-.82-14.13-1.63-21.2-2.45,0,6.47,0,12.93,0,19.4,7.07.91,14.13,1.82,21.2,2.73v-19.68Zm30.11-52.39c-7.07-.56-14.13-1.11-21.2-1.67v19.79c7.07.65,14.13,1.3,21.2,1.95v-20.07Zm0,28.51c-7.07-.69-14.13-1.38-21.2-2.07v19.46c7.07.78,14.13,1.56,21.2,2.34v-19.74Zm0,27.36c-7.07-.82-14.13-1.63-21.2-2.45v19.79c7.07.91,14.13,1.82,21.2,2.73v-20.07Z"/>
      </g>
    </g>
  </g>
  <g id="_Слой_1" data-name="Слой 1">
    <g>
      <ellipse class="cls-7" cx="163.85" cy="27.86" rx="13.23" ry="20.36"/>
      <rect class="cls-8" x="150.62" y="312.93" width="26.39" height="407.65"/>
      <path class="cls-8" d="m141.82,720.58h43.99c14.57,0,26.39,13.68,26.39,30.54h-96.78c0-16.86,11.82-30.54,26.39-30.54Z"/>
      <polygon class="cls-6" points="203.41 312.93 124.22 312.93 106.63 139.85 221 139.85 203.41 312.93"/>
      <path class="cls-11" d="m124.22,99.13h79.18c19.43,0,35.19,18.24,35.19,40.72H89.03c0-22.48,15.77-40.72,35.19-40.72Z"/>
      <path class="cls-11" d="m159.42,58.41h8.8c19.43,0,35.19,18.24,35.19,40.72h-79.18c0-22.48,15.77-40.72,35.19-40.72Z"/>
      <line class="cls-3" x1="194.61" y1="170.4" x2="185.81" y2="262.03"/>
    </g>
  </g>
  <g id="_Слой_4" data-name="Слой 4">
    <ellipse class="cls-12" cx="1028.44" cy="162.36" rx="1.85" ry="2.43"/>
    <rect class="cls-1" x="1026.59" y="196.33" width="3.69" height="48.57"/>
    <path class="cls-1" d="m1025.36,244.9h6.15c2.04,0,3.69,1.63,3.69,3.64h-13.53c0-2.01,1.65-3.64,3.69-3.64Z"/>
    <polygon class="cls-2" points="1033.97 196.33 1022.9 196.33 1020.44 175.7 1036.42 175.7 1033.97 196.33"/>
    <path class="cls-9" d="m1022.9,170.85h11.07c2.71,0,4.92,2.17,4.92,4.85h-20.9c0-2.68,2.2-4.85,4.92-4.85Z"/>
    <path class="cls-9" d="m1027.82,166h1.23c2.71,0,4.92,2.17,4.92,4.85h-11.07c0-2.68,2.2-4.85,4.92-4.85Z"/>
    <line class="cls-4" x1="1032.74" y1="179.34" x2="1031.51" y2="190.26"/>
  </g>
</svg>