<svg id="eJCjl0OWemA1" xmlns="http://www.w3.org/2000/svg" xmlns:xlink="http://www.w3.org/1999/xlink" viewBox="0 0 945.7 913.2" shape-rendering="geometricPrecision" text-rendering="geometricPrecision">
<style><![CDATA[
#eJCjl0OWemA15_to {animation: eJCjl0OWemA15_to__to 10000ms linear infinite normal forwards}@keyframes eJCjl0OWemA15_to__to { 0% {offset-distance: 0%} 16.666667% {offset-distance: 30.992026%} 33.333333% {offset-distance: 61.910434%} 50% {offset-distance: 100%} 100% {offset-distance: 100%}} #eJCjl0OWemA18_to {animation: eJCjl0OWemA18_to__to 10000ms linear infinite normal forwards}@keyframes eJCjl0OWemA18_to__to { 0% {offset-distance: 0%} 33.333333% {offset-distance: 35.089657%} 83.333333% {offset-distance: 100%} 100% {offset-distance: 100%}} #eJCjl0OWemA21_to {animation: eJCjl0OWemA21_to__to 10000ms linear infinite normal forwards}@keyframes eJCjl0OWemA21_to__to { 0% {offset-distance: 0%} 33.333333% {offset-distance: 23.169277%} 73.333333% {offset-distance: 59.511737%} 100% {offset-distance: 100%}} #eJCjl0OWemA24_to {animation: eJCjl0OWemA24_to__to 10000ms linear infinite normal forwards}@keyframes eJCjl0OWemA24_to__to { 0% {offset-distance: 0%} 50% {offset-distance: 0%} 63.333333% {offset-distance: 31.882188%} 80% {offset-distance: 52.274229%} 100% {offset-distance: 100%}} #eJCjl0OWemA28_tr {animation: eJCjl0OWemA28_tr__tr 10000ms linear infinite normal forwards}@keyframes eJCjl0OWemA28_tr__tr { 0% {transform: translate(242.264462px,543.923767px) rotate(0deg)} 16.666667% {transform: translate(242.264462px,543.923767px) rotate(-6.206227deg)} 83.333333% {transform: translate(242.264462px,543.923767px) rotate(21.248508deg)} 100% {transform: translate(242.264462px,543.923767px) rotate(0deg)}} #eJCjl0OWemA41_tr {animation: eJCjl0OWemA41_tr__tr 10000ms linear infinite normal forwards}@keyframes eJCjl0OWemA41_tr__tr { 0% {transform: translate(279.76152px,537.995447px) rotate(0deg)} 33.333333% {transform: translate(279.76152px,537.995447px) rotate(21.305562deg)} 66.666667% {transform: translate(279.76152px,537.995447px) rotate(-6.869712deg)} 100% {transform: translate(279.76152px,537.995447px) rotate(0deg)}} #eJCjl0OWemA42_tr {animation: eJCjl0OWemA42_tr__tr 10000ms linear infinite normal forwards}@keyframes eJCjl0OWemA42_tr__tr { 0% {transform: translate(171.48262px,533.786316px) rotate(0deg)} 33.333333% {transform: translate(171.48262px,533.786316px) rotate(11.624597deg)} 66.666667% {transform: translate(171.48262px,533.786316px) rotate(-4.661442deg)} 100% {transform: translate(171.48262px,533.786316px) rotate(0deg)}} #eJCjl0OWemA53_tr {animation: eJCjl0OWemA53_tr__tr 10000ms linear infinite normal forwards}@keyframes eJCjl0OWemA53_tr__tr { 0% {transform: translate(215.43486px,533.123721px) rotate(0deg)} 33.333333% {transform: translate(215.43486px,533.123721px) rotate(5.332449deg)} 66.666667% {transform: translate(215.43486px,533.123721px) rotate(-2.528743deg)} 100% {transform: translate(215.43486px,533.123721px) rotate(0deg)}} #eJCjl0OWemA66_tr {animation: eJCjl0OWemA66_tr__tr 10000ms linear infinite normal forwards}@keyframes eJCjl0OWemA66_tr__tr { 0% {transform: translate(214.454219px,532.677127px) rotate(0deg)} 26.666667% {transform: translate(214.454219px,532.677127px) rotate(8.622781deg)} 70% {transform: translate(214.454219px,532.677127px) rotate(-12.588713deg)} 100% {transform: translate(214.454219px,532.677127px) rotate(0deg)}} #eJCjl0OWemA69_tr {animation: eJCjl0OWemA69_tr__tr 10000ms linear infinite normal forwards}@keyframes eJCjl0OWemA69_tr__tr { 0% {transform: translate(423.528687px,521.685791px) rotate(0deg)} 16.666667% {transform: translate(423.528687px,521.685791px) rotate(-8.060246deg)} 66.666667% {transform: translate(423.528687px,521.685791px) rotate(42.594417deg)} 100% {transform: translate(423.528687px,521.685791px) rotate(0deg)}} #eJCjl0OWemA70_tr {animation: eJCjl0OWemA70_tr__tr 10000ms linear infinite normal forwards}@keyframes eJCjl0OWemA70_tr__tr { 0% {transform: translate(276.961365px,427.400726px) rotate(0deg)} 33.333333% {transform: translate(276.961365px,427.400726px) rotate(-8.563096deg)} 66.666667% {transform: translate(276.961365px,427.400726px) rotate(9.342684deg)} 100% {transform: translate(276.961365px,427.400726px) rotate(0deg)}} #eJCjl0OWemA93_tr {animation: eJCjl0OWemA93_tr__tr 10000ms linear infinite normal forwards}@keyframes eJCjl0OWemA93_tr__tr { 0% {transform: translate(254.517776px,403.983887px) rotate(0deg)} 33.333333% {transform: translate(254.517776px,403.983887px) rotate(-7.002269deg)} 66.666667% {transform: translate(254.517776px,403.983887px) rotate(4.21271deg)} 100% {transform: translate(254.517776px,403.983887px) rotate(0deg)}} #eJCjl0OWemA118_tr {animation: eJCjl0OWemA118_tr__tr 10000ms linear infinite normal forwards}@keyframes eJCjl0OWemA118_tr__tr { 0% {transform: translate(361.894921px,551.040042px) rotate(0deg)} 23.333333% {transform: translate(361.894921px,551.040042px) rotate(-54.689108deg)} 100% {transform: translate(361.894921px,551.040042px) rotate(0deg)}} #eJCjl0OWemA121_tr {animation: eJCjl0OWemA121_tr__tr 10000ms linear infinite normal forwards}@keyframes eJCjl0OWemA121_tr__tr { 0% {transform: translate(155.417465px,343.200226px) rotate(0deg)} 20% {transform: translate(155.417465px,343.200226px) rotate(16.721443deg)} 76.666667% {transform: translate(155.417465px,343.200226px) rotate(-26.874331deg)} 100% {transform: translate(155.417465px,343.200226px) rotate(0deg)}} #eJCjl0OWemA124_tr {animation: eJCjl0OWemA124_tr__tr 10000ms linear infinite normal forwards}@keyframes eJCjl0OWemA124_tr__tr { 0% {transform: translate(186.647583px,339.601746px) rotate(0deg)} 26.666667% {transform: translate(186.647583px,339.601746px) rotate(8.061036deg)} 83.333333% {transform: translate(186.647583px,339.601746px) rotate(-49.885452deg)} 100% {transform: translate(186.647583px,339.601746px) rotate(0deg)}} #eJCjl0OWemA127_tr {animation: eJCjl0OWemA127_tr__tr 10000ms linear infinite normal forwards}@keyframes eJCjl0OWemA127_tr__tr { 0% {transform: translate(357.346039px,418.369995px) rotate(0deg)} 50% {transform: translate(357.346039px,418.369995px) rotate(-33.938417deg)} 100% {transform: translate(357.346039px,418.369995px) rotate(0deg)}} #eJCjl0OWemA128_tr {animation: eJCjl0OWemA128_tr__tr 10000ms linear infinite normal forwards}@keyframes eJCjl0OWemA128_tr__tr { 0% {transform: translate(266.861516px,236.935043px) rotate(0deg)} 33.333333% {transform: translate(266.861516px,236.935043px) rotate(-21.549449deg)} 70% {transform: translate(266.861516px,236.935043px) rotate(5.714485deg)} 100% {transform: translate(266.861516px,236.935043px) rotate(0deg)}} #eJCjl0OWemA139_tr {animation: eJCjl0OWemA139_tr__tr 10000ms linear infinite normal forwards}@keyframes eJCjl0OWemA139_tr__tr { 0% {transform: translate(305.695435px,286.039429px) rotate(0deg)} 33.333333% {transform: translate(305.695435px,286.039429px) rotate(-8.33817deg)} 66.666667% {transform: translate(305.695435px,286.039429px) rotate(7.709935deg)} 100% {transform: translate(305.695435px,286.039429px) rotate(0deg)}} #eJCjl0OWemA151_tr {animation: eJCjl0OWemA151_tr__tr 10000ms linear infinite normal forwards}@keyframes eJCjl0OWemA151_tr__tr { 0% {transform: translate(151.329979px,162.114639px) rotate(0deg)} 30% {transform: translate(151.329979px,162.114639px) rotate(-10.992595deg)} 70% {transform: translate(151.329979px,162.114639px) rotate(3.790575deg)} 100% {transform: translate(151.329979px,162.114639px) rotate(0deg)}} #eJCjl0OWemA162_tr {animation: eJCjl0OWemA162_tr__tr 10000ms linear infinite normal forwards}@keyframes eJCjl0OWemA162_tr__tr { 0% {transform: translate(149.135025px,161.583191px) rotate(0deg)} 33.333333% {transform: translate(149.135025px,161.583191px) rotate(7.232804deg)} 66.666667% {transform: translate(149.135025px,161.583191px) rotate(-5.081467deg)} 100% {transform: translate(149.135025px,161.583191px) rotate(0deg)}} #eJCjl0OWemA173_tr {animation: eJCjl0OWemA173_tr__tr 10000ms linear infinite normal forwards}@keyframes eJCjl0OWemA173_tr__tr { 0% {transform: translate(467.137726px,314.336792px) rotate(0deg)} 33.333333% {transform: translate(467.137726px,314.336792px) rotate(9.437373deg)} 66.666667% {transform: translate(467.137726px,314.336792px) rotate(-8.498646deg)} 100% {transform: translate(467.137726px,314.336792px) rotate(0deg)}} #eJCjl0OWemA186_tr {animation: eJCjl0OWemA186_tr__tr 10000ms linear infinite normal forwards}@keyframes eJCjl0OWemA186_tr__tr { 0% {transform: translate(468.920355px,316.491425px) rotate(0deg)} 30% {transform: translate(468.920355px,316.491425px) rotate(-12.94302deg)} 70% {transform: translate(468.920355px,316.491425px) rotate(6.418472deg)} 100% {transform: translate(468.920355px,316.491425px) rotate(0deg)}} #eJCjl0OWemA187_tr {animation: eJCjl0OWemA187_tr__tr 10000ms linear infinite normal forwards}@keyframes eJCjl0OWemA187_tr__tr { 0% {transform: translate(484.869904px,166.139924px) rotate(0deg)} 33.333333% {transform: translate(484.869904px,166.139924px) rotate(-14.770562deg)} 66.666667% {transform: translate(484.869904px,166.139924px) rotate(13.36435deg)} 100% {transform: translate(484.869904px,166.139924px) rotate(0deg)}} #eJCjl0OWemA194_tr {animation: eJCjl0OWemA194_tr__tr 10000ms linear infinite normal forwards}@keyframes eJCjl0OWemA194_tr__tr { 0% {transform: translate(633.146118px,387.387787px) rotate(0deg)} 36.666667% {transform: translate(633.146118px,387.387787px) rotate(-4.726038deg)} 70% {transform: translate(633.146118px,387.387787px) rotate(16.400547deg)} 100% {transform: translate(633.146118px,387.387787px) rotate(0deg)}} #eJCjl0OWemA203_tr {animation: eJCjl0OWemA203_tr__tr 10000ms linear infinite normal forwards}@keyframes eJCjl0OWemA203_tr__tr { 0% {transform: translate(550.240723px,368.947327px) rotate(0deg)} 30% {transform: translate(550.240723px,368.947327px) rotate(8.69126deg)} 70% {transform: translate(550.240723px,368.947327px) rotate(-19.831565deg)} 100% {transform: translate(550.240723px,368.947327px) rotate(0deg)}} #eJCjl0OWemA204_tr {animation: eJCjl0OWemA204_tr__tr 10000ms linear infinite normal forwards}@keyframes eJCjl0OWemA204_tr__tr { 0% {transform: translate(673.195496px,158.987747px) rotate(0deg)} 30% {transform: translate(673.195496px,158.987747px) rotate(8.868772deg)} 63.333333% {transform: translate(673.195496px,158.987747px) rotate(-9.289112deg)} 100% {transform: translate(673.195496px,158.987747px) rotate(0deg)}} #eJCjl0OWemA214_tr {animation: eJCjl0OWemA214_tr__tr 10000ms linear infinite normal forwards}@keyframes eJCjl0OWemA214_tr__tr { 0% {transform: translate(672.246155px,158.987747px) rotate(0deg)} 36.666667% {transform: translate(672.246155px,158.987747px) rotate(-34.847614deg)} 73.333333% {transform: translate(672.246155px,158.987747px) rotate(18.641788deg)} 100% {transform: translate(672.246155px,158.987747px) rotate(0deg)}} #eJCjl0OWemA216_tr {animation: eJCjl0OWemA216_tr__tr 10000ms linear infinite normal forwards}@keyframes eJCjl0OWemA216_tr__tr { 0% {transform: translate(794.970215px,475.448547px) rotate(0deg)} 30% {transform: translate(794.970215px,475.448547px) rotate(-10.367538deg)} 70% {transform: translate(794.970215px,475.448547px) rotate(11.654512deg)} 100% {transform: translate(794.970215px,475.448547px) rotate(0deg)}} #eJCjl0OWemA225_tr {animation: eJCjl0OWemA225_tr__tr 10000ms linear infinite normal forwards}@keyframes eJCjl0OWemA225_tr__tr { 0% {transform: translate(793.538696px,475.448548px) rotate(0deg)} 33.333333% {transform: translate(793.538696px,475.448548px) rotate(35.605192deg)} 66.666667% {transform: translate(793.538696px,475.448548px) rotate(-10.888683deg)} 100% {transform: translate(793.538696px,475.448548px) rotate(0deg)}} #eJCjl0OWemA227_tr {animation: eJCjl0OWemA227_tr__tr 10000ms linear infinite normal forwards}@keyframes eJCjl0OWemA227_tr__tr { 0% {transform: translate(547.080011px,252.42668px) rotate(0deg)} 33.333333% {transform: translate(547.080011px,252.42668px) rotate(8.024389deg)} 70% {transform: translate(547.080011px,252.42668px) rotate(-6.034642deg)} 100% {transform: translate(547.080011px,252.42668px) rotate(0deg)}} #eJCjl0OWemA238_tr {animation: eJCjl0OWemA238_tr__tr 10000ms linear infinite normal forwards}@keyframes eJCjl0OWemA238_tr__tr { 0% {transform: translate(548.859786px,252.484025px) rotate(0deg)} 33.333333% {transform: translate(548.859786px,252.484025px) rotate(-24.21977deg)} 66.666667% {transform: translate(548.859786px,252.484025px) rotate(11.864119deg)} 100% {transform: translate(548.859786px,252.484025px) rotate(0deg)}} #eJCjl0OWemA251_tr {animation: eJCjl0OWemA251_tr__tr 10000ms linear infinite normal forwards}@keyframes eJCjl0OWemA251_tr__tr { 0% {transform: translate(730.023926px,358.450122px) rotate(0deg)} 33.333333% {transform: translate(730.023926px,358.450122px) rotate(2.078045deg)} 66.666667% {transform: translate(730.023926px,358.450122px) rotate(-2.463116deg)} 100% {transform: translate(730.023926px,358.450122px) rotate(0deg)}} #eJCjl0OWemA254_tr {animation: eJCjl0OWemA254_tr__tr 10000ms linear infinite normal forwards}@keyframes eJCjl0OWemA254_tr__tr { 0% {transform: translate(398.541378px,338.40274px) rotate(0deg)} 36.666667% {transform: translate(398.541378px,338.40274px) rotate(3.485259deg)} 66.666667% {transform: translate(398.541378px,338.40274px) rotate(-3.755221deg)} 100% {transform: translate(398.541378px,338.40274px) rotate(0deg)}} #eJCjl0OWemA255_tr {animation: eJCjl0OWemA255_tr__tr 10000ms linear infinite normal forwards}@keyframes eJCjl0OWemA255_tr__tr { 0% {transform: translate(790.113279px,219.323692px) rotate(0deg)} 30% {transform: translate(790.113279px,219.323692px) rotate(7.315603deg)} 73.333333% {transform: translate(790.113279px,219.323692px) rotate(-14.35811deg)} 100% {transform: translate(790.113279px,219.323692px) rotate(0deg)}} #eJCjl0OWemA266_tr {animation: eJCjl0OWemA266_tr__tr 10000ms linear infinite normal forwards}@keyframes eJCjl0OWemA266_tr__tr { 0% {transform: translate(819.39801px,199.984595px) rotate(0deg)} 33.333333% {transform: translate(819.39801px,199.984595px) rotate(-12.530281deg)} 66.666667% {transform: translate(819.39801px,199.984595px) rotate(11.601167deg)} 100% {transform: translate(819.39801px,199.984595px) rotate(0deg)}} #eJCjl0OWemA274_tr {animation: eJCjl0OWemA274_tr__tr 10000ms linear infinite normal forwards}@keyframes eJCjl0OWemA274_tr__tr { 0% {transform: translate(868.905151px,572.253784px) rotate(0deg)} 33.333333% {transform: translate(868.905151px,572.253784px) rotate(12.422898deg)} 66.666667% {transform: translate(868.905151px,572.253784px) rotate(-11.404562deg)} 100% {transform: translate(868.905151px,572.253784px) rotate(0deg)}} #eJCjl0OWemA285_tr {animation: eJCjl0OWemA285_tr__tr 10000ms linear infinite normal forwards}@keyframes eJCjl0OWemA285_tr__tr { 0% {transform: translate(869.144897px,572.617737px) rotate(0deg)} 33.333333% {transform: translate(869.144897px,572.617737px) rotate(-15.933462deg)} 66.666667% {transform: translate(869.144897px,572.617737px) rotate(1.884693deg)} 100% {transform: translate(869.144897px,572.617737px) rotate(0deg)}} #eJCjl0OWemA298_tr {animation: eJCjl0OWemA298_tr__tr 10000ms linear infinite normal forwards}@keyframes eJCjl0OWemA298_tr__tr { 0% {transform: translate(770.273682px,288.594733px) rotate(0deg)} 33.333333% {transform: translate(770.273682px,288.594733px) rotate(-18.973351deg)} 66.666667% {transform: translate(770.273682px,288.594733px) rotate(20.742892deg)} 100% {transform: translate(770.273682px,288.594733px) rotate(0deg)}} #eJCjl0OWemA301_tr {animation: eJCjl0OWemA301_tr__tr 10000ms linear infinite normal forwards}@keyframes eJCjl0OWemA301_tr__tr { 0% {transform: translate(674.790914px,270px) rotate(0deg)} 33.333333% {transform: translate(674.790914px,270px) rotate(-2.985986deg)} 66.666667% {transform: translate(674.790914px,270px) rotate(2.727505deg)} 100% {transform: translate(674.790914px,270px) rotate(0deg)}} #eJCjl0OWemA303_tr {animation: eJCjl0OWemA303_tr__tr 10000ms linear infinite normal forwards}@keyframes eJCjl0OWemA303_tr__tr { 0% {transform: translate(843.126679px,333.929488px) rotate(0deg)} 26.666667% {transform: translate(843.126679px,333.929488px) rotate(5.960576deg)} 73.333333% {transform: translate(843.126679px,333.929488px) rotate(-9.440111deg)} 100% {transform: translate(843.126679px,333.929488px) rotate(0deg)}} #eJCjl0OWemA316_tr {animation: eJCjl0OWemA316_tr__tr 10000ms linear infinite normal forwards}@keyframes eJCjl0OWemA316_tr__tr { 0% {transform: translate(841.227544px,333.295286px) rotate(0deg)} 33.333333% {transform: translate(841.227544px,333.295286px) rotate(-19.795147deg)} 66.666667% {transform: translate(841.227544px,333.295286px) rotate(7.971636deg)} 100% {transform: translate(841.227544px,333.295286px) rotate(0deg)}} #eJCjl0OWemA319_tr {animation: eJCjl0OWemA319_tr__tr 10000ms linear infinite normal forwards}@keyframes eJCjl0OWemA319_tr__tr { 0% {transform: translate(686.647751px,476.686464px) rotate(19.82753deg)} 33.333333% {transform: translate(686.647751px,476.686464px) rotate(30.956306deg)} 66.666667% {transform: translate(686.647751px,476.686464px) rotate(15.523243deg)} 100% {transform: translate(686.647751px,476.686464px) rotate(19.83deg)}} #eJCjl0OWemA320_tr {animation: eJCjl0OWemA320_tr__tr 10000ms linear infinite normal forwards}@keyframes eJCjl0OWemA320_tr__tr { 0% {transform: translate(671.87317px,577.376404px) rotate(0deg)} 33.333333% {transform: translate(671.87317px,577.376404px) rotate(-8.258257deg)} 73.333333% {transform: translate(671.87317px,577.376404px) rotate(11.062448deg)} 100% {transform: translate(671.87317px,577.376404px) rotate(0deg)}} #eJCjl0OWemA333_tr {animation: eJCjl0OWemA333_tr__tr 10000ms linear infinite normal forwards}@keyframes eJCjl0OWemA333_tr__tr { 0% {transform: translate(785.138565px,647.293845px) rotate(0deg)} 50% {transform: translate(785.138565px,647.293845px) rotate(-6.91333deg)} 100% {transform: translate(785.138565px,647.293845px) rotate(0deg)}} #eJCjl0OWemA336_tr {animation: eJCjl0OWemA336_tr__tr 10000ms linear infinite normal forwards}@keyframes eJCjl0OWemA336_tr__tr { 0% {transform: translate(780.477204px,540.429932px) rotate(0deg)} 20% {transform: translate(780.477204px,540.429932px) rotate(-7.716575deg)} 73.333333% {transform: translate(780.477204px,540.429932px) rotate(26.454661deg)} 100% {transform: translate(780.477204px,540.429932px) rotate(0deg)}}
]]></style>
<g><g><g><ellipse rx="15.7" ry="24.3" transform="translate(105.4 41.9)" fill="none" stroke="#2f2f31" stroke-width="15" stroke-linecap="round" stroke-linejoin="round"/><rect width="31.4" height="484.9" rx="0" ry="0" transform="translate(89.6 381.1)" fill="#898991" stroke="#3e3d43" stroke-width="15" stroke-linecap="round" stroke-linejoin="round"/><path d="M79.1,866.1h52.3c17.4,0,31.4,16.3,31.4,36.3h-115.1c0-20.1,14.1-36.3,31.4-36.3v0Z" fill="#898991" stroke="#3e3d43" stroke-width="15" stroke-linecap="round" stroke-linejoin="round"/><polygon points="152.4,381.1 58.1,381.1 37.3,175.2 173.3,175.2" fill="#fece59" stroke="#4d251e" stroke-width="15" stroke-linecap="round" stroke-linejoin="round"/><path d="M58.1,126.8h94.2c23.1,0,41.9,21.7,41.9,48.4h-177.8c0-26.8,18.7-48.4,41.7-48.4Z" fill="#898991" stroke="#58575d" stroke-width="15" stroke-linecap="round" stroke-linejoin="round"/><path d="M100,78.3h10.5c23.1,0,41.9,21.7,41.9,48.4h-94.1c0-26.7,18.6-48.4,41.7-48.4Z" fill="#898991" stroke="#58575d" stroke-width="15" stroke-linecap="round" stroke-linejoin="round"/><line x1="141.9" y1="211.6" x2="131.4" y2="320.5" fill="none" stroke="#fff" stroke-width="15" stroke-linecap="round" stroke-linejoin="round"/></g></g></g><g transform="translate(2.105693-1.854289)"><g transform="translate(334.848 228.395)"><g transform="translate(-556.13813-417.090758)"><g id="eJCjl0OWemA15_to" style="offset-path:path('M897.798615,478.634949C897.798615,478.634949,998.694501,609.071698,1006.596885,684.44525C1014.86809,763.336613,938.11964,825.345146,935.798615,904.634949C933.292933,990.232914,1055.798615,1163.634949,1055.798615,1163.634949');offset-rotate:0deg"><path d="M883.3,871.6c6.3,19.3,30.5,21.1,31.1,19.9.3-.3-1.2-.9-2.1-2.7v-3.3c2.1-10.3,1.8-13.6-1.2-18.7c0,0-2.1,1.5-4.5,1.2-1.8-.3-3.3-1.2-4.2-2.1s-1.5-2.4-1.2-4.8c.3-2.7,2.1-3.9,2.1-3.9-8.2-7.3-13.6-1.8-15.7-.9l-3.3-2.1c-1.2-1.2-2.1-2.7-2.1-2.7s-1.5-.3-.9,1.5l2.4,1.8c1.5,1.5,2.7,3,2.7,3s-5.8,5.7-3.1,13.8v0v0Z" transform="rotate(-23.732686) scale(0.645973,0.645973) translate(-897.798615,-871.634949)" fill="#b84c41" stroke="#995d15" stroke-miterlimit="10"/></g></g></g><g transform="translate(379.363 410.71)"><g transform="translate(-379.363-410.71)"><g id="eJCjl0OWemA18_to" style="offset-path:path('M240.239932,540.193585C240.239932,540.193585,131.980209,616.91069,119.239932,668.193585C95.672425,763.058872,206.239932,982.193585,206.239932,982.193585');offset-rotate:0deg"><path d="M860.9,838.4c-.3-.3-.6-2.8-.3-4.7.3-2.2,1.3-3.8,1.3-3.8s-.6-1.9-2.2,0v3.5c-.3,2.5-1.3,4.7-1.3,4.7s-10.4-.9-16.3,7.2c-14.5,19.8,1.9,43.7,3.1,43.7.6,0-.3-1.9,1.3-3.8L850,883c7.2-3.5,10.1-4.1,14.8-11c2.5-3.8,4.7-7.5,5.7-16.3c1.1-13.2-7.1-16.1-9.6-17.3v0v0v0Z" transform="rotate(-165) scale(0.432738,0.432738) translate(-853.37439,-859.027802)" fill="#f7b238" stroke="#995d15" stroke-miterlimit="10"/></g></g></g><g transform="matrix(1.100983 0 0 1.100983-188.238826 257.398207)"><g transform="translate(-379.363-410.71)"><g id="eJCjl0OWemA21_to" style="offset-path:path('M955.569078,475.053613C955.569078,475.053613,896.412338,567.813693,893.806106,613.112021C889.747247,683.658139,976.340309,768.035213,964.699786,837.732611C952.717695,909.475142,820.550617,1059.021491,820.550617,1059.021491');offset-rotate:0deg"><path d="M883.6,783.9v0v0c-2.4,1.2-10.3,3.9-9.1,16.6.9,8.5,3,12.1,5.4,15.7c4.5,6.7,7.3,7.3,14.2,10.6l3.3,2.1c1.5,1.8.6,3.6,1.2,3.6c1.2,0,16.9-23,3-42-5.7-7.9-15.7-7-15.7-7s-.9-2.1-1.2-4.5v-3.3c-1.5-1.8-2.1,0-2.1,0s.9,1.5,1.2,3.6c.4,1.9.1,4.3-.2,4.6v0Z" transform="rotate(-33.961196) scale(0.648155,0.648155) translate(-890.843048,-803.699951)" fill="#df9b2d" stroke="#995d15" stroke-miterlimit="10"/></g></g></g><g transform="matrix(.913771 0.008758-.009312 0.97158 454.819427 349.676869)"><g transform="matrix(1.001361 0 0 0.995387-379.275464-410.793721)"><g id="eJCjl0OWemA24_to" style="offset-path:path('M848.846416,652.222154L765.563111,793.806655C751.758551,825.825025,785.925563,844.668933,804.580001,886.809284C819.744517,926.240883,713.006433,980.388806,634.841254,1055.032726');offset-rotate:0deg"><path d="M864.4,749.7c-.3-.3-.7-3.1-.3-5.2.3-2.4,1.4-4.1,1.4-4.1s-.7-2.1-2.4,0v3.8c-.3,2.8-1.4,5.2-1.4,5.2s-11.4-1-17.9,7.9c-15.9,21.7,2.1,47.9,3.4,47.9.7,0-.3-2.1,1.4-4.1l3.8-2.4c7.9-3.8,11-4.5,16.2-12.1c2.8-4.1,5.2-8.3,6.2-17.9c1.3-14.5-7.6-17.6-10.4-19v0v0v0Z" transform="scale(0.317894,0.317892) translate(-856.10257,-772.333374)" fill="#f3962f" stroke="#995d15" stroke-miterlimit="10"/></g></g></g></g><g><path d="M419.5,405.3c-18.3,7.3-37.5,11.4-56.8,12.6-2.1-1.5-4.5-2.8-7.5-3.6-16.4-4.3-26.2-17.4-37-29.5-13-14.6-42.4-30.1-59.8-36.2-20.7-9-29.6-5.2-51.9-8.1-20.1-1-57.4-2.9-69.6-19.1-17.1-22.7-24.9-24.2-7.5-1.2c27.2,36.1,68.6,37.9,106.8,56.5c13.3,6.4,24.4,15.8,34.9,26-7.8-3.2-33.6,3.6-39.6,1.8-36.4-10.5-69-21.7-43.9-7.7c40.3,22.4,122.3,66.7,168.4,66c22.6-.3,45.4-4.9,66.9-11.6c17-5.2,63.2-34.1,80-16.7.7,6.1,1.4,12.2,2.2,18.3c5,37.1,4.7,73.6-1.3,110-25.8-27.7-66.3-40.8-103.4-50.3-59.2-15.2-155.5-1.7-205.2-40.7-22.3-17.5-23.9-5-1.3,12.8c18.6,14.6,38.4,25.5,59.1,34.2-20.1,9.4-38.3,15.4-63.5,10.5-28.1-5.5-68.1-4.7-39.8.8c24.4,4.8,50.5,19.9,81.9,21.3c15.9-1.5,20.4-2.9,40.3-7.3c19.7-7.3,30.9-4.9,47.9-4c2.8.1,16,4.5,18.3,3.9c44.9,9.8,129.9,17.2,144.8,69.7c1,3.6,2.6,6.5,4.6,8.8L476.4,912.6h105.9L571.4,608c0-1.8-.2-3.4-.3-5.1c1.5-1.6,3-3.4,4.1-5.8c9.8-19.9,23.4-32.2,39.4-39.8c11.9-6.8,55.1,14.4,76.5,37.4c18.4,19.7,41.9,45.9,67.9,52.1c11.9,2.8,57.7,3.9,49.2-.3-9.8-4.9-30.6-7.3-53.7-24.2-34.8-27.6-44-48.9-66-73.5-1.4-1.6-3-3-4.5-4.5c27.2-1,55.2-.5,80.3-6.3.9.1,1.8.3,2.8.4c22.4.7,41.5,11.2,56.3,26.1c14.2,14.3,50.6,28.6,69,37.2c41.7,17.9,30.7,1.6-6.5-22.1-30.3-14.2-45.4-52.1-71.2-69.7c4.6-5.2-2.2-37.4,1.6-44.3-1.2-3.9,31.4-45.5,5-26.7-7.9,6.8-31,45.1-44,49.9-.1,0-24.1,8.1-24.2,8.1-35.1,13-80.9,1.7-113.7,6.4-.2,0-.3.1-.5.1c23.4-14.4,49.1-25.9,71.4-36.3c58-27.3,114.9-64.9,133.3-129.9c7.9-27.7-5.3-50.6-13.2-23-8.7,30.6-26.1,52.4-82.9,81.3.7-25.6-24-50.9-4.7-71.4c19.7-20.9,46.4-58.4,15.6-37.2-18.2,15.6-50.2,40.7-53.8,63.4-3.5,22.3,5.7,48.8-5.8,69.1-1,1.8-1.7,3.6-2.2,5.3-20.1,9.8-40.6,18.5-58.9,27.8-15.3,7.7-30.3,17.1-44.2,27.9c23-70.5,93.8-197.6,155.7-241.2c64-45.1,98.4,6.2,155.7-51.4c20.3-20.4,10.7-20.2-23.8,4.7-20.4,20.5-52.9-2.3-79.2,8.7c9.8-18.3-3.5-51.2.1-72.6c4.8-28.1-13.5,8.4-18.4,36.7-5,29.5-32.8,45.4-59.5,62.8-55.2,35.9-31,27.4-93.8,82.4-19.9,23-49,67.7-57.1,90.2-5.9,16.4-23.4,48.1-21.8,65.2-1.3-13.5-3.2-26.8-4.4-39.8c0-.6-.1-1.2-.2-1.8-2.3-25.8-1.6-50.9,12.2-76.4c36.6-67.3,111.4-104.7,113-189.5.5-28.8-5.4-29.9-5.9-1.2-.9,48.8-74.8,84.6-107.6,120.5-1.2-4.8-2.7-9.6-4.9-14.2-7.3-15.8-44.4-47.4-49.6-64.2-5.6-18-7.6-58.7-6.4-77.2c1.8-28.7-12,9.6-13.8,38.1-2.1,32.3-1.1,61.5,11.7,91.5c5.7,13.3,15.5,23.4,19.9,37.5c4.1,13.4-.3,29.6-5.2,44.1-13.8-10.3-30.7-17.8-48.4-22.3-63.6-16.4-115.6,1.3-163.2-43.9-32-38.7-48.5-49.5-36.6-23.6c5,10.8,11.2,20.9,18.3,30.1-3.5-.2-6.9-.4-10.4-.6-25.4-1.4-61.9-7.4-70.3-32.9-11.7-35.3-23-56.8-50.8-85.2-20.2-20.5-15-5.6,5.2,15c16.3,16.6,15.9,44.4,19.9,66.3c4.1,22.4,12.9,42.7,28.6,59.4c12.8,13.7,33.7,19.1,51.6,20.8c28.1,2.6,56.3,3.7,84.5,5.2c6.4,3.4,13,6.4,19.7,9.1c23.9,9.5,48.4,15.1,73.7,19.7c20.9,3.8,60.3,11.5,66.9,35.8-25.8-2.1-55.8,9.7-79.4,19.1Z" fill="#7c4d3c" stroke="#533d2c" stroke-miterlimit="10"/></g><g><g id="eJCjl0OWemA28_tr" transform="translate(242.264462,543.923767) rotate(0)"><g transform="translate(-242.264462,-543.923763)"><g><g transform="translate(379.363 410.71)"><g transform="translate(-379.363-410.71)"><path d="M240.7,553.7c-.2-.3-.1-2.3.4-3.8.6-1.7,1.5-2.8,1.5-2.8s-.2-1.6-1.7-.3l-.5,2.7c-.6,2-1.7,3.6-1.7,3.6s-8.1-2.2-14,3.5c-14.2,13.7-4.5,35-3.5,35.1.5.1,0-1.5,1.5-2.8l3.1-1.3c6.2-1.7,8.6-1.9,13.3-6.7c2.5-2.6,4.8-5.3,6.8-12.2c2.7-10.3-3.4-13.6-5.2-15v0v0v0Z" fill="#f3962f" stroke="#995d15" stroke-miterlimit="10"/></g></g><g transform="translate(379.363 410.71)"><g transform="translate(-379.363-410.71)"><path d="M243.4,552.3v0v0c-2,2-8.9,7.4-3.4,19.6c3.8,8.1,7.1,11,10.7,13.8c6.7,5.1,9.7,4.8,17.7,5.7l4,1c2.1,1.3,1.8,3.4,2.4,3.2c1.2-.4,9.1-28.5-11.2-42.8-8.4-5.9-18-1.6-18-1.6s-1.6-1.8-2.7-4.1l-1.1-3.3c-2.1-1.3-2.1.7-2.1.7s1.4,1.2,2.4,3.2c1,1.7,1.5,4.2,1.3,4.6v0Z" fill="#df9b2d" stroke="#995d15" stroke-miterlimit="10"/></g></g></g><g transform="translate(379.363 410.71)"><g transform="translate(-379.363-410.71)"><path d="M242.1,550v0v0c-1.7.8-7,2.7-6.2,11.3.6,5.8,2.1,8.2,3.7,10.7c3.1,4.5,4.9,4.9,9.7,7.2l2.3,1.4c1,1.2.4,2.5.8,2.5.8,0,11.5-15.7,2.1-28.6-3.9-5.4-10.7-4.7-10.7-4.7s-.6-1.4-.8-3.1v-2.3c-1-1.2-1.4,0-1.4,0s.6,1,.8,2.5c.1,1.2-.1,2.9-.3,3.1v0Z" fill="#f7b238" stroke="#995d15" stroke-miterlimit="10"/></g></g></g></g><g transform="matrix(.999987-.005023 0.005023 0.999987 334.848 228.395)"><g transform="matrix(.999988-.004954 0.004954 0.999988-334.848-228.395)"><g id="eJCjl0OWemA41_tr" transform="translate(279.76152,537.995447) rotate(0)"><path d="M280.8,548.9c3.4,10.3,16.3,11.3,16.6,10.6.2-.2-.6-.5-1.1-1.4v-1.8c1.1-5.5,1-7.2-.6-10c0,0-1.1.8-2.4.6-1-.2-1.8-.6-2.3-1.1s-.8-1.3-.6-2.6c.2-1.4,1.1-2.1,1.1-2.1-4.3-3.9-7.2-1-8.4-.5l-1.8-1.1c-.6-.6-1.1-1.4-1.1-1.4s-.8-.2-.5.8l1.3,1c.8.8,1.4,1.6,1.4,1.6s-3.1,3.1-1.6,7.4v0v0Z" transform="translate(-279.76152,-537.995447)" fill="#b84c41" stroke="#995d15" stroke-miterlimit="10"/></g></g></g><g id="eJCjl0OWemA42_tr" transform="translate(171.48262,533.786316) rotate(0)"><g transform="translate(-171.48262,-533.786313)"><g><g transform="translate(379.363 410.71)"><g transform="translate(-379.363-410.71)"><path d="M171.9,542.9v0v0c-1.8,1.3-7.9,4.7-5.1,15c2,6.9,4.2,9.5,6.8,12.2c4.7,4.8,7,4.9,13.3,6.7l3.1,1.3c1.5,1.3,1,2.9,1.5,2.8c1-.2,10.7-21.4-3.5-35.1-5.9-5.7-14-3.5-14-3.5s-1.1-1.6-1.7-3.6l-.5-2.7c-1.5-1.3-1.7.3-1.7.3s1,1.1,1.5,2.8c.4,1.5.5,3.6.3,3.8v0Z" fill="#f3962f" stroke="#995d15" stroke-miterlimit="10"/></g></g><g transform="translate(379.363 410.71)"><g transform="translate(-379.363-410.71)"><path d="M169.2,541.5c-.2-.4.3-2.9,1.2-4.6c1-2,2.4-3.2,2.4-3.2s0-2-2.1-.7l-1.1,3.3c-1.1,2.3-2.7,4.1-2.7,4.1s-9.6-4.3-18,1.6c-20.2,14.2-12.4,42.4-11.2,42.8.6.2.3-1.9,2.4-3.2l4-1c8-1,10.9-.6,17.7-5.7c3.6-2.8,7-5.7,10.7-13.8c5.6-12.2-1.3-17.6-3.3-19.6v0v0v0Z" fill="#df9b2d" stroke="#995d15" stroke-miterlimit="10"/></g></g></g><g transform="translate(379.363 410.71)"><g transform="translate(-379.363-410.71)"><path d="M170.5,539.2c-.2-.2-.4-1.9-.2-3.1.2-1.4.8-2.5.8-2.5s-.4-1.2-1.4,0v2.3c-.2,1.6-.8,3.1-.8,3.1s-6.8-.6-10.7,4.7c-9.5,13,1.2,28.6,2.1,28.6.4,0-.2-1.2.8-2.5l2.3-1.4c4.7-2.3,6.6-2.7,9.7-7.2c1.6-2.5,3.1-4.9,3.7-10.7.7-8.6-4.7-10.4-6.3-11.3v0v0v0Z" fill="#f7b238" stroke="#995d15" stroke-miterlimit="10"/></g></g></g></g><g id="eJCjl0OWemA53_tr" transform="translate(215.43486,533.123721) rotate(0)"><g transform="translate(-215.434857,-533.123713)"><g><g transform="translate(379.363 410.71)"><g transform="translate(-379.363-410.71)"><path d="M212.5,523.4c.3.2,1,2.1,1.2,3.6.2,1.8-.3,3.2-.3,3.2s.9,1.4,1.7-.4l-.7-2.7c-.2-2,.1-3.9.1-3.9s8.3-1.3,11.4-8.8c7.5-18.3-10-33.8-11-33.6-.5.1.6,1.4-.3,3.2l-2.3,2.4c-5,4.1-7.1,5.2-9.4,11.5-1.2,3.4-2.2,6.8-1.2,13.9c1.6,10.5,8.6,11.1,10.8,11.6v0v0v0Z" fill="#f3962f" stroke="#995d15" stroke-miterlimit="10"/></g></g><g transform="translate(379.363 410.71)"><g transform="translate(-379.363-410.71)"><path d="M210.6,525.8v0v0c1-2.7,5.1-10.3-4.8-19.3-6.7-5.9-10.9-7.2-15.4-8.3-8.2-1.9-10.8-.4-18.5,1.9l-4.1.7c-2.5-.3-3-2.4-3.5-1.9-.9.9,3.3,29.8,27.5,34.6c10,2,17.1-5.8,17.1-5.8s2.2,1,4.2,2.6l2.4,2.6c2.5.3,1.6-1.5,1.6-1.5s-1.8-.5-3.5-1.9c-1.5-1.2-3-3.3-3-3.7v0Z" fill="#df9b2d" stroke="#995d15" stroke-miterlimit="10"/></g></g></g><g transform="translate(379.363 410.71)"><g transform="translate(-379.363-410.71)"><path d="M212.7,527.3v0v0c1.2-1.4,5.3-5.3,1.1-12.9-2.9-5-5.2-6.7-7.7-8.3-4.7-2.9-6.5-2.5-11.8-2.7l-2.7-.4c-1.4-.7-1.4-2.1-1.8-1.9-.8.3-4.2,19,9.7,27c5.7,3.3,11.7,0,11.7,0s1.2,1.1,2,2.5l.9,2.1c1.4.7,1.3-.6,1.3-.6s-1-.7-1.8-1.9c-.5-1-1-2.6-.9-2.9v0Z" fill="#f7b238" stroke="#995d15" stroke-miterlimit="10"/></g></g></g></g><g transform="translate(334.848 228.395)"><g transform="translate(-334.848-228.395)"><g id="eJCjl0OWemA66_tr" transform="translate(214.454219,532.677127) rotate(0)"><path d="M225.9,519.1c8.3-14.8-4.3-30.7-5.3-30.4-.4,0,.1,1.3-.5,2.8l-2,1.9c-7.5,4.5-9.4,6.6-10.8,11.3c0,0,2.1.4,3.3,2.1.8,1.3,1.1,2.7,1.1,3.8s-.6,2.3-2.3,3.5c-1.8,1.4-3.6.9-3.6.9.2,9.1,6.6,9.4,8.3,10.1l.6,3.2c-.1,1.4-.5,2.8-.5,2.8s.7,1.1,1.4-.3l-.3-2.5c.1-1.8.3-3.4.3-3.4s6.9.5,10.3-5.8v0v0Z" transform="translate(-214.454219,-532.677124)" fill="#b84c41" stroke="#995d15" stroke-miterlimit="10"/></g></g></g><g transform="translate(379.363 410.71)"><g transform="translate(-379.363-410.71)"><g id="eJCjl0OWemA69_tr" transform="translate(423.528687,521.685791) rotate(0)"><path d="M418.7,517.9c.2,0,1.4.8,2.1,1.7.8,1,1.1,2,1.1,2s1,.5.9-.9l-1.4-1.3c-.9-1.1-1.4-2.3-1.4-2.3s4.4-3.9,3.4-9.5c-2.5-13.6-18.7-16.2-19.1-15.7-.2.3.9.6,1.1,2l-.4,2.3c-1.4,4.3-2.2,5.7-1.2,10.3.6,2.5,1.3,4.9,4.5,8.7c4.6,5.5,8.9,3.2,10.4,2.7v0v0v0Z" transform="translate(-423.528684,-521.685786)" fill="#f3962f" stroke="#995d15" stroke-miterlimit="10"/></g></g></g><g id="eJCjl0OWemA70_tr" transform="translate(276.961365,427.400726) rotate(0)"><g transform="translate(-276.961365,-427.400722)"><g><g><g transform="translate(379.363 410.71)"><g transform="translate(-379.363-410.71)"><path d="M276.7,439.4c-.3-.4-.1-2.9.5-4.6.7-2.1,1.9-3.5,1.9-3.5s-.3-1.9-2.1-.4l-.6,3.4c-.7,2.4-2,4.4-2,4.4s-9.9-2.7-17.1,4.3c-17.4,16.8-5.6,42.8-4.3,43.1.6.1,0-1.9,1.9-3.5l3.7-1.6c7.6-2.1,10.5-2.3,16.2-8.2c3.1-3.2,5.9-6.5,8.3-14.9c3.3-12.7-4.2-16.8-6.4-18.5v0v0v0Z" fill="#f3962f" stroke="#995d15" stroke-miterlimit="10"/></g></g><g transform="translate(379.363 410.71)"><g transform="translate(-379.363-410.71)"><path d="M280,437.7v0v0c-2.5,2.5-10.9,9-4.2,24c4.6,9.9,8.7,13.5,13.1,16.9c8.3,6.2,11.8,5.8,21.7,7l4.9,1.2c2.6,1.6,2.2,4.2,3,3.9c1.5-.5,11.1-35-13.7-52.4-10.2-7.2-22-2-22-2s-2-2.2-3.3-5l-1.4-4.1c-2.6-1.6-2.6.9-2.6.9s1.7,1.5,3,3.9c1.1,2.1,1.7,5.2,1.5,5.7v0Z" fill="#df9b2d" stroke="#995d15" stroke-miterlimit="10"/></g></g></g><g transform="translate(379.363 410.71)"><g transform="translate(-379.363-410.71)"><path d="M278.3,434.9v0v0c-2,1-8.6,3.3-7.6,13.9.8,7.1,2.5,10.1,4.5,13.1c3.8,5.6,6.1,6.1,11.9,8.8l2.8,1.8c1.3,1.5.5,3,1,3c1,0,14.1-19.2,2.5-35.1-4.8-6.6-13.1-5.8-13.1-5.8s-.8-1.8-1-3.8v-2.8c-1.3-1.5-1.8,0-1.8,0s.8,1.3,1,3c.3,1.6.1,3.6-.2,3.9v0Z" fill="#f7b238" stroke="#995d15" stroke-miterlimit="10"/></g></g></g><g><g><g transform="translate(379.363 410.71)"><g transform="translate(-379.363-410.71)"><path d="M271.7,436.7v0v0c-2.2.3-9.2.5-11.5,10.9-1.5,7-.7,10.4.3,13.9c1.9,6.5,3.9,7.7,8.6,12.1l2.1,2.5c.7,1.8-.5,3,0,3.2c1,.3,19.4-13.9,13.3-32.7-2.5-7.8-10.7-9.6-10.7-9.6s-.2-1.9.2-3.9l.9-2.7c-.7-1.8-1.7-.5-1.7-.5s.3,1.4,0,3.2c-.3,1.5-1.1,3.4-1.5,3.6v0Z" fill="#f3962f" stroke="#995d15" stroke-miterlimit="10"/></g></g><g transform="translate(379.363 410.71)"><g transform="translate(-379.363-410.71)"><path d="M270,434.2c0-.4,1.6-2.4,3.2-3.5c1.8-1.3,3.6-1.7,3.6-1.7s.9-1.8-1.5-1.6l-2.5,2.4c-2.1,1.5-4.3,2.3-4.3,2.3s-6.5-8.3-16.6-7c-24.5,3.1-30.7,31.7-29.9,32.6.4.5,1.2-1.5,3.6-1.7l4,1c7.6,2.9,10,4.5,18.3,3.2c4.5-.8,8.8-1.8,15.9-7.2c10.7-8.2,7.1-16.1,6.2-18.8v0v0v0Z" fill="#df9b2d" stroke="#995d15" stroke-miterlimit="10"/></g></g></g><g transform="translate(379.363 410.71)"><g transform="translate(-379.363-410.71)"><path d="M272.3,432.7c-.1-.3.5-1.8,1.3-2.8.9-1.2,1.9-1.8,1.9-1.8s.2-1.3-1.3-.7l-1.1,2c-.9,1.4-2.2,2.3-2.2,2.3s-5.7-3.7-11.7-.8c-14.4,7.1-12.3,25.9-11.5,26.3.4.2.4-1.2,1.9-1.8l2.7-.2c5.2.2,7.1.7,11.9-1.9c2.6-1.4,5-2.9,8.3-7.7c4.7-7.2.8-11.4-.2-12.9v0v0v0Z" fill="#f7b238" stroke="#995d15" stroke-miterlimit="10"/></g></g></g></g></g><g id="eJCjl0OWemA93_tr" transform="translate(254.517776,403.983887) rotate(0)"><g transform="translate(-254.517771,-403.983887)"><g><g><g transform="translate(379.363 410.71)"><g transform="translate(-379.363-410.71)"><path d="M247.2,395.4c.4.1,2.1,2,2.8,3.7.9,2,1,3.8,1,3.8s1.5,1.2,1.8-1.2l-1.9-2.8c-1.1-2.2-1.5-4.6-1.5-4.6s9.1-4.9,9.5-14.9c1.1-24.2-25.4-34.9-26.5-34.3-.5.3,1.3,1.4,1,3.8l-1.6,3.7c-4.1,6.8-6.1,8.9-6.2,17.1c0,4.5.2,8.8,4.3,16.5c6.3,11.7,14.6,9.5,17.3,9.2v0v0v0Z" fill="#f3962f" stroke="#995d15" stroke-miterlimit="10"/></g></g><g transform="translate(379.363 410.71)"><g transform="translate(-379.363-410.71)"><path d="M246,398.9v0v0c.1-3.5,1.7-14.1-13.5-20.3-10.2-4-15.6-3.8-21.1-3.2-10.3,1.2-12.6,3.9-20.6,9.8l-4.4,2.5c-3,.6-4.5-1.5-4.9-.8-.7,1.4,16,33,46,28.6c12.4-1.8,17.3-13.7,17.3-13.7s3,.2,5.9,1.3l3.8,2c3-.6,1.3-2.4,1.3-2.4s-2.3.1-4.9-.8c-2.1-.6-4.7-2.4-4.9-3v0Z" fill="#df9b2d" stroke="#995d15" stroke-miterlimit="10"/></g></g></g><g transform="translate(379.363 410.71)"><g transform="translate(-379.363-410.71)"><path d="M249.1,399.9v0v0c.8-2.1,4-8.3-4-15.3-5.4-4.6-8.8-5.6-12.3-6.4-6.6-1.4-8.6-.2-14.7,1.7l-3.2.6c-2-.2-2.5-1.9-2.8-1.5-.7.7,2.9,23.7,22.3,27.2c8,1.5,13.5-4.8,13.5-4.8s1.8.8,3.3,2.1l1.9,2c2,.2,1.3-1.2,1.3-1.2s-1.4-.4-2.8-1.5c-1.3-.9-2.5-2.6-2.5-2.9v0Z" fill="#f7b238" stroke="#995d15" stroke-miterlimit="10"/></g></g></g><g><g><g transform="translate(379.363 410.71)"><g transform="translate(-379.363-410.71)"><path d="M252.7,394v0v0c1.4-1.8,6.4-6.7.9-15.9-3.7-6.1-6.7-8.1-9.8-9.9-5.8-3.4-8.1-2.9-14.6-2.9l-3.3-.4c-1.8-.8-1.8-2.5-2.2-2.3-.9.4-4.5,23.5,12.9,32.9c7.2,3.9,14.4-.4,14.4-.4s1.5,1.3,2.6,3l1.2,2.5c1.8.8,1.6-.8,1.6-.8s-1.2-.8-2.2-2.3c-1-1.2-1.6-3.1-1.5-3.5v0Z" fill="#f3962f" stroke="#995d15" stroke-miterlimit="10"/></g></g><g transform="translate(379.363 410.71)"><g transform="translate(-379.363-410.71)"><path d="M255.7,394.7c.3.3.5,2.9.1,4.8-.4,2.2-1.5,3.7-1.5,3.7s.5,1.9,2.2.1l.2-3.5c.5-2.5,1.5-4.7,1.5-4.7s10.4,1.5,16.9-6.4c15.7-19.2.5-44.1-.7-44.2-.6,0,.2,1.9-1.5,3.7l-3.6,2c-7.5,3.1-10.4,3.6-15.5,10.3-2.7,3.7-5.2,7.3-6.6,16.2-2.1,13.3,6,16.6,8.5,18v0v0v0Z" fill="#df9b2d" stroke="#995d15" stroke-miterlimit="10"/></g></g></g><g transform="translate(379.363 410.71)"><g transform="translate(-379.363-410.71)"><path d="M255,397.2c.3.1.9,1.7,1,2.9.2,1.4-.1,2.6-.1,2.6s.7,1.1,1.4-.4l-.6-2.2c-.2-1.6,0-3.2,0-3.2s6.7-1.2,9-7.4c5.6-15-8.9-27.2-9.7-27-.4.1.5,1.1-.1,2.6l-1.8,2c-4,3.5-5.6,4.4-7.4,9.5-.9,2.8-1.6,5.6-.7,11.3c1.5,8.6,7.2,9,9,9.3v0v0v0Z" fill="#f7b238" stroke="#995d15" stroke-miterlimit="10"/></g></g></g></g></g><g transform="translate(379.363 407.71)"><g transform="matrix(.999999-.001539 0.001539 0.999999-379.363-410.71)"><g id="eJCjl0OWemA118_tr" transform="translate(361.894921,551.040042) rotate(0)"><path d="M362.7,554.4c0-.2.8-1.3,1.6-1.8.9-.7,1.8-.9,1.8-.9s.4-.9-.8-.8l-1.2,1.3c-1,.8-2.1,1.3-2.1,1.3s-3.5-4-8.6-3.2c-12.4,2.1-14.9,16.8-14.4,17.2.2.2.6-.8,1.8-.9l2.1.4c3.9,1.3,5.2,2.1,9.4,1.2c2.3-.5,4.4-1.1,7.9-4c5-4.5,3-8.5,2.5-9.8v0v0v0Z" transform="translate(-365.745753,-551.275471)" fill="#f7b238" stroke="#995d15" stroke-miterlimit="10"/></g></g></g><g transform="translate(334.848 228.395)"><g transform="translate(-334.848-228.395)"><g id="eJCjl0OWemA121_tr" transform="translate(155.417465,343.200226) rotate(0)"><path d="M135.5,345.3c-19.2,6-21.3,29.8-20.1,30.4.3.3.9-1.2,2.7-2.1h3.3c10.1,2.2,13.4,2,18.5-.9c0,0-1.5-2.1-1.1-4.5.3-1.8,1.2-3.3,2.1-4.1.9-.9,2.4-1.5,4.8-1.1c2.7.3,3.8,2.1,3.8,2.1c7.3-8,2-13.4,1.1-15.5l2.1-3.3c1.2-1.2,2.7-2.1,2.7-2.1s.3-1.5-1.5-.9l-1.8,2.4c-1.5,1.5-3,2.6-3,2.6s-5.5-5.6-13.6-3v0v0Z" transform="translate(-155.417463,-343.200217)" fill="#f49631" stroke="#995d15" stroke-miterlimit="10"/></g></g></g><g transform="translate(379.363 410.71)"><g transform="translate(-379.363-410.71)"><g id="eJCjl0OWemA124_tr" transform="translate(186.647583,339.601746) rotate(0)"><path d="M189.9,337.5v0v0c.9.6,3.6,2.9,7.9-.2c2.9-2.1,3.7-3.6,4.5-5.3c1.4-3,1.1-4.1.8-7.3l.1-1.6c.3-.9,1.2-1,1.1-1.2-.3-.4-11.8-1.3-15.8,7.7-1.6,3.7.8,7.1.8,7.1s-.6.8-1.4,1.4l-1.2.7c-.3.9.4.8.4.8s.4-.6,1.1-1.2c.6-.5,1.5-.9,1.7-.9v0Z" transform="translate(-186.647583,-339.601746)" fill="#df9b2d" stroke="#995d15" stroke-miterlimit="10"/></g></g></g><g transform="translate(334.848 228.395)"><g transform="translate(-334.848-228.395)"><g id="eJCjl0OWemA127_tr" transform="translate(357.346039,418.369995) rotate(0)"><path d="M368.5,414.4c9-6.1,6.3-18.7,5.6-18.9-.2-.1-.3.8-1.1,1.5l-1.7.5c-5.6.4-7.2,1.1-9.4,3.4c0,0,1.1.9,1.3,2.1.1,1-.1,1.9-.5,2.5-.3.6-1,1.1-2.3,1.3-1.4.2-2.3-.5-2.3-.5-2.5,5.2,1.1,7.2,1.8,8.2l-.6,2c-.4.8-1.1,1.5-1.1,1.5s.1.8.9.2l.6-1.5c.6-1,1.1-1.8,1.1-1.8s3.9,2.1,7.7-.5v0v0Z" transform="translate(-357.346039,-418.369989)" fill="#b84c41" stroke="#995d15" stroke-miterlimit="10"/></g></g></g><g id="eJCjl0OWemA128_tr" transform="translate(266.861516,236.935043) rotate(0)"><g transform="translate(-266.861516,-236.935041)"><g><g transform="translate(379.363 410.71)"><g transform="translate(-379.363-410.71)"><path d="M272.7,229.2c0,.4-1.1,2.1-2.3,3-1.4,1.2-2.8,1.6-2.8,1.6s-.6,1.5,1.3,1.2l1.8-2.1c1.5-1.4,3.3-2.2,3.3-2.2s5.8,6.1,13.8,4.3c19.3-4.4,22-27.5,21.2-28.2-.4-.3-.8,1.3-2.8,1.6l-3.3-.5c-6.2-1.7-8.3-2.9-14.8-1.1-3.5,1-6.9,2.1-12.1,6.9-7.6,7.3-4.2,13.4-3.3,15.5v0v0v0Z" fill="#f3962f" stroke="#995d15" stroke-miterlimit="10"/></g></g><g transform="translate(379.363 410.71)"><g transform="translate(-379.363-410.71)"><path d="M269.7,229v0v0c2.8-.7,11.4-1.7,13.1-15c1-8.9-.4-13.1-2-17.3-3.1-7.8-5.8-9.1-12.2-14.1l-2.9-2.9c-1.1-2.2.2-3.9-.4-4-1.2-.3-22.5,19.7-12.6,42.4c4.1,9.4,14.5,10.7,14.5,10.7s.5,2.4.2,4.9l-.8,3.4c1.1,2.2,2.2.5,2.2.5s-.6-1.8-.4-4c0-1.9.9-4.4,1.3-4.6v0Z" fill="#df9b2d" stroke="#995d15" stroke-miterlimit="10"/></g></g></g><g transform="translate(379.363 410.71)"><g transform="translate(-379.363-410.71)"><path d="M269.6,231.6v0v0c1.8.2,7.4,1.3,11.2-6.5c2.5-5.3,2.5-8.1,2.4-11.1-.3-5.5-1.7-6.8-4.5-11.2l-1.2-2.4c-.2-1.6.9-2.3.6-2.5-.7-.4-18,7.4-16.6,23.4.6,6.6,6.7,9.6,6.7,9.6s-.2,1.6-.9,3.1l-1.3,2c.2,1.6,1.2.7,1.2.7s0-1.2.6-2.5c.5-1.2,1.5-2.5,1.8-2.6v0Z" fill="#f7b238" stroke="#995d15" stroke-miterlimit="10"/></g></g></g></g><g id="eJCjl0OWemA139_tr" transform="translate(305.695435,286.039429) rotate(0)"><g transform="translate(-305.695435,-286.03942)"><g><g transform="translate(379.363 410.71)"><g transform="translate(-379.363-410.71)"><path d="M309.3,295.1v0v0c-1.4,1.8-6.4,6.7-.8,15.9c3.8,6.1,6.7,8,9.8,9.9c5.8,3.4,8.1,2.9,14.6,2.9l3.3.4c1.8.8,1.8,2.5,2.2,2.3.9-.4,4.5-23.5-12.9-32.9-7.2-3.9-14.4.4-14.4.4s-1.5-1.3-2.6-3l-1.2-2.5c-1.8-.8-1.6.8-1.6.8s1.2.8,2.2,2.3c.8,1.2,1.5,3.1,1.4,3.5v0Z" fill="#f3962f" stroke="#995d15" stroke-miterlimit="10"/></g></g><g transform="translate(379.363 410.71)"><g transform="translate(-379.363-410.71)"><path d="M306.3,294.4c-.3-.3-.5-2.9-.1-4.8.4-2.2,1.5-3.7,1.5-3.7s-.5-1.9-2.2-.1l-.2,3.5c-.4,2.5-1.5,4.7-1.5,4.7s-10.4-1.5-16.9,6.4c-15.6,19.2-.4,44.1.8,44.2.6,0-.2-1.9,1.5-3.7l3.6-2c7.5-3.1,10.4-3.6,15.5-10.3c2.7-3.7,5.2-7.3,6.6-16.2c2-13.3-6.1-16.6-8.6-18v0v0v0Z" fill="#df9b2d" stroke="#995d15" stroke-miterlimit="10"/></g></g></g><g transform="translate(379.363 410.71)"><g transform="translate(-379.363-410.71)"><path d="M306.9,291.9c-.3-.1-.9-1.7-1-2.9-.2-1.4.1-2.6.1-2.6s-.7-1.1-1.4.4l.6,2.2c.2,1.6,0,3.2,0,3.2s-6.7,1.2-9,7.5c-5.6,15.1,8.9,27.2,9.7,27c.4-.1-.5-1.1.1-2.6l1.8-2c3.9-3.5,5.6-4.4,7.4-9.6.9-2.8,1.6-5.6.7-11.3-1.5-8.6-7.1-9-9-9.3v0v0v0Z" fill="#f7b238" stroke="#995d15" stroke-miterlimit="10"/></g></g></g></g><g><g id="eJCjl0OWemA151_tr" transform="translate(151.329979,162.114639) rotate(0)"><g transform="translate(-151.329979,-162.114633)"><g><g transform="translate(379.363 410.71)"><g transform="translate(-379.363-410.71)"><path d="M144,171.6c0-.4,1.4-2.5,2.8-3.7c1.7-1.4,3.4-2,3.4-2s.8-1.8-1.6-1.4l-2.3,2.6c-1.9,1.7-4,2.7-4,2.7s-7.1-7.5-16.8-5.3c-23.7,5.2-27.1,33.6-26.2,34.4.5.4,1-1.6,3.4-2l4,.6c7.6,2.2,10.1,3.5,18.1,1.5c4.3-1.2,8.4-2.5,14.9-8.4c9.6-9,5.4-16.4,4.3-19v0v0v0Z" fill="#f3962f" stroke="#995d15" stroke-miterlimit="10"/></g></g><g transform="translate(379.363 410.71)"><g transform="translate(-379.363-410.71)"><path d="M147.7,171.9v0v0c-3.4.8-14,2-16.1,18.3-1.3,10.9.4,16,2.4,21.3c3.8,9.6,7,11.2,14.8,17.3l3.6,3.6c1.4,2.7-.3,4.7.5,4.9c1.5.3,27.8-24,15.7-51.9-5-11.5-17.7-13.2-17.7-13.2s-.5-2.9-.2-6l.9-4.2c-1.4-2.7-2.7-.6-2.7-.6s.7,2.2.5,4.9c-.1,2.3-1.2,5.3-1.7,5.6v0Z" fill="#df9b2d" stroke="#995d15" stroke-miterlimit="10"/></g></g></g><g transform="translate(379.363 410.71)"><g transform="translate(-379.363-410.71)"><path d="M147.8,168.6v0v0c-2.3-.2-9-1.7-13.7,7.9-3,6.4-3.1,9.9-3,13.6.3,6.7,2,8.3,5.5,13.7l1.4,3c.3,1.9-1.2,2.8-.7,3.1.9.5,22.1-9,20.5-28.6-.7-8.1-8.2-11.8-8.2-11.8s.3-1.9,1.1-3.8l1.5-2.4c-.3-2-1.5-.9-1.5-.9s0,1.5-.7,3.1c-.6,1.5-1.8,3.1-2.2,3.1v0Z" fill="#f7b238" stroke="#995d15" stroke-miterlimit="10"/></g></g></g></g><g id="eJCjl0OWemA162_tr" transform="translate(149.135025,161.583191) rotate(0)"><g transform="translate(-149.135024,-161.583183)"><g><g transform="translate(379.363 410.71)"><g transform="translate(-379.363-410.71)"><path d="M141.3,166.7v0v0c-2.1-.9-8.1-4.4-15.5,3.3-4.9,5.2-6.1,8.5-7,12-1.8,6.5-.7,8.6,1,14.8l.5,3.3c-.3,1.9-2,2.4-1.7,2.7.7.8,23.9-1.7,28.4-21c1.9-7.9-4.1-13.8-4.1-13.8s.9-1.7,2.2-3.2l2.1-1.8c.3-2-1.2-1.3-1.2-1.3s-.5,1.4-1.7,2.7c-1,1.2-2.7,2.3-3,2.3v0Z" fill="#f3962f" stroke="#995d15" stroke-miterlimit="10"/></g></g><g transform="translate(379.363 410.71)"><g transform="translate(-379.363-410.71)"><path d="M141.1,163.7c.2-.4,2.7-1.2,4.6-1.3c2.2-.1,4,.5,4,.5s1.7-1-.5-2.2l-3.4.7c-2.5.2-4.9-.3-4.9-.3s-1.2-10.4-10.5-14.6c-22.6-10.2-42.7,11-42.5,12.2.1.6,1.8-.7,4,.5l2.9,3c4.9,6.4,6.1,9.1,13.9,12.3c4.2,1.7,8.4,3.1,17.3,2.2c13.3-1.6,14.4-10.3,15.1-13v0v0v0Z" fill="#df9b2d" stroke="#995d15" stroke-miterlimit="10"/></g></g></g><g transform="translate(379.363 410.71)"><g transform="translate(-379.363-410.71)"><path d="M143.8,163.6c.1-.3,1.4-1.3,2.6-1.8c1.3-.6,2.5-.6,2.5-.6s.9-1-.7-1.2l-1.9,1.2c-1.5.7-3.1.9-3.1.9s-2.9-6.2-9.5-6.8c-16-1.5-24,15.7-23.6,16.4.2.4,1-.8,2.5-.6l2.4,1.2c4.4,2.9,5.7,4.3,11.1,4.7c3,.2,5.8.1,11.1-2.3c7.8-3.7,6.7-9.2,6.6-11.1v0v0v0Z" fill="#f7b238" stroke="#995d15" stroke-miterlimit="10"/></g></g></g></g></g><g id="eJCjl0OWemA173_tr" transform="translate(467.137726,314.336792) rotate(0)"><g transform="translate(-467.13772,-314.336789)"><g><g transform="translate(379.363 410.71)"><g transform="translate(-379.363-410.71)"><path d="M467,304.4c.2.3.2,2.3-.2,3.8-.5,1.7-1.4,2.9-1.4,2.9s.3,1.6,1.8.2l.3-2.8c.5-2,1.5-3.6,1.5-3.6s8.2,1.8,13.8-4.2c13.5-14.5,2.7-35.1,1.7-35.3-.5-.1.1,1.5-1.4,2.9l-3,1.4c-6.1,2.1-8.4,2.3-12.9,7.4-2.4,2.8-4.5,5.6-6.1,12.5-2.3,10.5,4,13.6,5.9,14.8v0v0v0Z" fill="#f3962f" stroke="#995d15" stroke-miterlimit="10"/></g></g><g transform="translate(379.363 410.71)"><g transform="translate(-379.363-410.71)"><path d="M464.3,306v0v0c1.9-2.1,8.5-7.8,2.4-19.7-4.2-7.9-7.7-10.6-11.4-13.2-7-4.7-9.9-4.2-18-4.8l-4.1-.8c-2.2-1.2-2-3.3-2.6-3.1-1.2.5-7.6,29,13.4,42.1c8.7,5.4,18,.7,18,.7s1.7,1.7,2.9,3.9l1.3,3.2c2.2,1.2,2.1-.8,2.1-.8s-1.5-1.1-2.6-3.1c-.9-1.5-1.5-4-1.4-4.4v0Z" fill="#df9b2d" stroke="#995d15" stroke-miterlimit="10"/></g></g></g><g transform="translate(379.363 410.71)"><g transform="translate(-379.363-410.71)"><path d="M465.8,308.2v0v0c1.6-.9,6.9-3,5.6-11.6-.9-5.7-2.5-8.1-4.3-10.5-3.3-4.4-5.2-4.7-10-6.7l-2.3-1.3c-1.1-1.2-.5-2.4-1-2.4-.8,0-10.7,16.2-.6,28.7c4.2,5.1,10.9,4.2,10.9,4.2s.7,1.4,1,3l.1,2.3c1.1,1.2,1.4-.1,1.4-.1s-.7-1-1-2.4c-.1-1.3,0-3,.2-3.2v0Z" fill="#f7b238" stroke="#995d15" stroke-miterlimit="10"/></g></g></g></g><g transform="translate(334.848 228.395)"><g transform="translate(-334.848-228.395)"><g id="eJCjl0OWemA186_tr" transform="translate(468.920355,316.491425) rotate(0)"><path d="M484.2,311.1c14.5-8.8,11.4-28.8,10.3-29-.3-.2-.5,1.2-1.8,2.2l-2.7.6c-8.7.2-11.4,1.1-15,4.5c0,0,1.6,1.4,1.8,3.5.1,1.5-.4,2.9-.9,3.8-.6.9-1.7,1.7-3.7,1.9-2.3.3-3.6-1-3.6-1-4.4,8,1.1,11.4,2.2,12.9l-1.1,3.1c-.8,1.2-1.8,2.2-1.8,2.2s0,1.3,1.4.5l1-2.3c.9-1.5,1.9-2.8,1.9-2.8s5.9,3.6,12-.1v0v0Z" transform="translate(-468.920355,-316.491419)" fill="#b84c41" stroke="#995d15" stroke-miterlimit="10"/></g></g></g><g id="eJCjl0OWemA187_tr" transform="translate(484.869904,166.139924) rotate(0)"><g transform="translate(-484.869904,-166.139907)"><g transform="translate(334.848 228.395)"><g transform="translate(-334.848-228.395)"><path d="M465.6,161.2c-20-1.4-30.7,20-29.8,21c.2.4,1.3-.8,3.3-.9l3,1.2c8.6,5.8,11.8,6.7,17.6,5.9c0,0-.6-2.5.6-4.6c1-1.5,2.3-2.6,3.5-3.1s2.8-.5,4.9.7c2.4,1.3,2.8,3.4,2.8,3.4c9.7-4.8,6.7-11.8,6.7-14l3.2-2.3c1.6-.7,3.3-.9,3.3-.9s.8-1.3-1-1.4l-2.6,1.5c-1.9.8-3.8,1.4-3.8,1.4s-3.2-7.3-11.7-7.9v0v0Z" fill="#f49631" stroke="#995d15" stroke-miterlimit="10"/></g></g><g transform="translate(379.363 410.71)"><g transform="translate(-379.363-410.71)"><path d="M477.7,161.5c.4-.1,2.6.8,4,2c1.6,1.3,2.5,2.8,2.5,2.8s1.8.4,1.1-1.8l-2.8-1.7c-1.9-1.5-3.2-3.3-3.2-3.3s5.8-8,1.9-16.8c-9.2-21.3-36.6-19.4-37.2-18.4-.3.5,1.7.7,2.5,2.8l.1,3.9c-.6,7.6-1.5,10.2,1.9,17.4c1.9,3.9,3.9,7.5,10.6,12.5c10.1,7.3,16.4,2,18.6.6v0v0v0Z" fill="#f7b238" stroke="#995d15" stroke-miterlimit="10"/></g></g></g></g><g id="eJCjl0OWemA194_tr" transform="translate(633.146118,387.387787) rotate(0)"><g transform="translate(-633.146118,-387.387779)"><g transform="translate(334.848 228.395)"><g transform="translate(-334.848-228.395)"><path d="M652.3,393.1v0c-7.4-4.1-14,.4-14,.4s-1.2-1.4-2.4-3.2l-1.3-2.7c-1.6-.9-1.6.6-1.6.6s1.3,1.2,2.3,2.5l1.5,3.6c-1.3,1.9-7.5,6.2-1.9,15.4c0,0,1.5-1.5,4.2-1.3c2.4.1,3.8,1,4.5,2s1.3,2.7,1.3,4.5c-.1,2.4-2,4.2-2,4.2c4.4,3.9,7.6,4.8,18,4.5l3.2.6c1.6,1.2,1.9,2.8,2.3,2.5.9-.2,3.5-24-14.1-33.6v0Z" fill="#f49631" stroke="#995d15" stroke-miterlimit="10"/></g></g><g transform="translate(379.363 410.71)"><g transform="translate(-379.363-410.71)"><path d="M641.9,386.7v0v0c1.1,2.4,3.5,10.3,16,9.6c8.4-.6,12-2.5,15.7-4.8c6.7-4.2,7.4-6.9,11-13.6l2.2-3.2c1.8-1.4,3.6-.5,3.6-1.1c0-1.2-22-17.5-41.3-4.6-8,5.4-7.4,15.2-7.4,15.2s-2.1.8-4.5,1l-3.3-.1c-1.8,1.4-.1,2.1-.1,2.1s1.5-.8,3.6-1.1c1.9-.1,4.3.3,4.5.6v0Z" fill="#f7b238" stroke="#995d15" stroke-miterlimit="10"/></g></g></g></g><g transform="translate(379.363 410.71)"><g transform="translate(-379.363-410.71)"><g id="eJCjl0OWemA203_tr" transform="translate(550.240723,368.947327) rotate(0)"><path d="M554.5,372.3c-.2,0-1.5-.7-2.2-1.5-.9-.9-1.3-1.8-1.3-1.8s-1.1-.4-.7,1l1.6,1.2c1,1,1.7,2.2,1.7,2.2s-3.9,4.4-2.3,9.8c4,13.2,20.3,14,20.8,13.4.2-.3-1-.5-1.3-1.8l.2-2.3c.9-4.4,1.6-5.9.1-10.4-.8-2.4-1.8-4.7-5.5-8.1-5.7-5.1-9.7-2.4-11.1-1.7v0v0v0Z" transform="translate(-550.240722,-368.947324)" fill="#f3962f" stroke="#995d15" stroke-miterlimit="10"/></g></g></g><g id="eJCjl0OWemA204_tr" transform="translate(673.195496,158.987747) rotate(0)"><g transform="translate(-673.195495,-158.987737)"><g><g transform="translate(334.848 228.395)"><g transform="translate(-334.848-228.395)"><path d="M691.3,164.7v0c-7.4-4.1-14,.4-14,.4s-1.2-1.4-2.4-3.2l-1.3-2.7c-1.6-.9-1.6.6-1.6.6s1.3,1.2,2.3,2.5l1.5,3.6c-1.3,1.9-7.5,6.2-1.9,15.4c0,0,1.5-1.5,4.2-1.3c2.4.1,3.8,1,4.5,2s1.3,2.7,1.3,4.5c-.1,2.4-2,4.2-2,4.2c4.4,3.9,7.6,4.8,18,4.5l3.2.6c1.6,1.2,1.9,2.8,2.3,2.5c1-.2,3.6-24-14.1-33.6v0Z" fill="#f49631" stroke="#995d15" stroke-miterlimit="10"/></g></g><g transform="translate(379.363 410.71)"><g transform="translate(-379.363-410.71)"><path d="M681,158.3v0v0c1.1,2.4,3.5,10.3,16,9.6c8.4-.6,12-2.5,15.7-4.8c6.7-4.2,7.4-6.9,11-13.6l2.2-3.2c1.8-1.4,3.6-.5,3.6-1.1c0-1.2-22-17.5-41.3-4.6-8,5.4-7.4,15.2-7.4,15.2s-2.1.8-4.5,1l-3.3-.1c-1.8,1.4-.1,2.1-.1,2.1s1.5-.8,3.6-1.1c1.9-.1,4.2.3,4.5.6v0Z" fill="#f7b238" stroke="#995d15" stroke-miterlimit="10"/></g></g></g><g transform="translate(334.848 228.395)"><g transform="translate(-334.848-228.395)"><g id="eJCjl0OWemA214_tr" transform="translate(672.246155,158.987747) rotate(0)"><path d="M680.8,168c9.2,7.7,21.9,1,21.8.2.1-.2-.9-.1-1.9-.7l-1-1.7c-2.2-5.8-3.4-7.4-6.5-9c0,0-.6,1.4-1.9,2-1,.4-2,.4-2.8.3-.7-.2-1.5-.7-2.1-2-.7-1.5-.2-2.6-.2-2.6-6.4-1.1-7.4,3.4-8.1,4.5h-2.3c-1-.2-1.9-.7-1.9-.7s-.8.3,0,1l1.8.1c1.2.3,2.3.7,2.3.7s-1.1,4.7,2.8,7.9v0v0Z" transform="translate(-672.246153,-158.987737)" fill="#b84c41" stroke="#995d15" stroke-miterlimit="10"/></g></g></g></g></g><g><g id="eJCjl0OWemA216_tr" transform="translate(794.970215,475.448547) rotate(0)"><g transform="translate(-794.970215,-475.448546)"><g transform="translate(334.848 228.395)"><g transform="translate(-334.848-228.395)"><path d="M776.2,469c-19.9-2.8-32.1,17.8-31.2,18.9.1.4,1.3-.7,3.3-.7l2.9,1.5c8.2,6.4,11.2,7.5,17.1,7.1c0,0-.4-2.5.9-4.5c1.1-1.5,2.5-2.4,3.7-2.8s2.8-.3,4.8,1c2.3,1.5,2.6,3.6,2.6,3.6c10-4.1,7.5-11.2,7.7-13.5l3.3-2c1.6-.5,3.3-.7,3.3-.7s.9-1.2-.9-1.5l-2.7,1.3c-2,.7-3.9,1.1-3.9,1.1s-2.5-7.6-10.9-8.8v0v0Z" fill="#f49631" stroke="#995d15" stroke-miterlimit="10"/></g></g><g transform="translate(379.363 410.71)"><g transform="translate(-379.363-410.71)"><path d="M788.3,470.1c.4-.1,2.5,1,3.8,2.3c1.6,1.4,2.3,3,2.3,3s1.8.5,1.2-1.7l-2.7-1.9c-1.8-1.6-3-3.5-3-3.5s6.3-7.6,3.1-16.6c-7.7-21.9-35.1-22-35.8-21-.3.5,1.6.8,2.3,3l-.1,3.9c-1.2,7.5-2.2,10,.7,17.4c1.6,4,3.4,7.7,9.7,13.2c9.5,8.1,16.1,3.2,18.5,1.9v0v0v0Z" fill="#f7b238" stroke="#995d15" stroke-miterlimit="10"/></g></g></g></g><g transform="translate(334.848 228.395)"><g transform="translate(-334.848-228.395)"><g id="eJCjl0OWemA225_tr" transform="translate(793.538696,475.448548) rotate(0)"><path d="M782.7,478v0c5.1-.2,7-4.6,7-4.6s1.1.3,2.2.9l1.5.9c1.1-.1.6-.8.6-.8s-1-.2-1.9-.6l-1.9-1.4c.1-1.4,1.9-5.5-3.8-8.5c0,0-.3,1.3-1.7,2-1.3.7-2.2.7-2.9.4s-1.5-.9-2.1-1.9c-.7-1.3-.3-2.8-.3-2.8-3.5-.6-5.4,0-10.6,3.3l-1.8.7c-1.2-.1-1.8-.8-1.9-.6-.6.6,5.6,13.6,17.6,13v0Z" transform="translate(-793.538696,-475.448548)" fill="#b84c41" stroke="#995d15" stroke-miterlimit="10"/></g></g></g></g><g transform="matrix(.996503 0.083557-.083557 0.996503 18.532863-46.394271)"><g id="eJCjl0OWemA227_tr" transform="translate(547.080011,252.42668) rotate(0)"><g transform="translate(-547.080011,-252.42668)"><g><g transform="translate(379.363 410.71)"><g transform="translate(-379.363-410.71)"><path d="M552.1,241.9c.1.4-.9,2.7-2.2,4.1-1.4,1.7-3,2.5-3,2.5s-.5,1.9,1.8,1.1l1.8-2.9c1.6-2,3.5-3.3,3.5-3.3s8.2,6.2,17.5,2.4c22.4-9.1,21.1-37.7,20-38.4-.5-.3-.7,1.7-3,2.5l-4.1.1c-7.9-.8-10.6-1.8-18.1,1.6-4.1,1.9-7.9,3.9-13.2,10.8-7.9,10.5-2.5,17.1-1,19.5v0v0v0Z" fill="#f3962f" stroke="#995d15" stroke-miterlimit="10"/></g></g><g transform="translate(379.363 410.71)"><g transform="translate(-379.363-410.71)"><path d="M548.4,242.3v0v0c3.2-1.4,13.5-4.3,12.8-20.7-.6-10.9-3.1-15.7-5.9-20.6-5.4-8.9-8.8-9.8-17.5-14.6l-4.1-2.9c-1.8-2.4-.5-4.7-1.3-4.7-1.5-.1-23.3,28.3-6.8,53.8c6.8,10.5,19.7,10,19.7,10s1,2.8,1.2,5.9l-.2,4.3c1.8,2.4,2.7.1,2.7.1s-1.1-2-1.3-4.7c-.3-2.4.3-5.5.7-5.9v0Z" fill="#df9b2d" stroke="#995d15" stroke-miterlimit="10"/></g></g></g><g transform="translate(379.363 410.71)"><g transform="translate(-379.363-410.71)"><path d="M548.8,245.5v0v0c2.3-.2,9.2.1,12.2-10.1c1.9-6.8,1.4-10.3.7-13.9-1.4-6.6-3.4-7.9-7.7-12.6l-1.9-2.7c-.6-1.9.7-3,.2-3.2-.9-.4-20.3,12.6-15.4,31.6c2,7.9,10,10.3,10,10.3s0,1.9-.5,3.9l-1,2.6c.6,1.9,1.6.7,1.6.7s-.2-1.5.2-3.2c.3-1.5,1.3-3.3,1.6-3.4v0Z" fill="#f7b238" stroke="#995d15" stroke-miterlimit="10"/></g></g></g></g><g id="eJCjl0OWemA238_tr" transform="translate(548.859786,252.484025) rotate(0)"><g transform="translate(-548.859786,-252.484025)"><g><g transform="translate(379.363 410.71)"><g transform="translate(-379.363-410.71)"><path d="M555.6,246.3v0v0c2.2.5,8.7,3,14.8-5.8c4-5.9,4.5-9.4,4.9-13c.6-6.7-.8-8.6-3.5-14.4l-1-3.1c0-2,1.6-2.7,1.2-3-.8-.6-23.2,5.7-24.5,25.5-.5,8.1,6.4,12.9,6.4,12.9s-.5,1.9-1.7,3.6l-1.8,2.1c0,2,1.4,1.1,1.4,1.1s.2-1.5,1.2-3c.8-1.5,2.3-2.9,2.6-2.9v0Z" fill="#f3962f" stroke="#995d15" stroke-miterlimit="10"/></g></g><g transform="translate(379.363 410.71)"><g transform="translate(-379.363-410.71)"><path d="M556.3,249.3c-.2.4-2.4,1.6-4.3,2-2.2.5-4,.2-4,.2s-1.5,1.3.8,2.1l3.2-1.3c2.5-.6,4.9-.6,4.9-.6s3,10.1,12.9,12.7c24,6.2,40.3-18,39.8-19.2-.2-.6-1.7,1-4,.2l-3.3-2.4c-5.9-5.5-7.6-7.9-15.8-9.8-4.5-1-8.8-1.6-17.4.8-13,3.7-12.6,12.4-12.8,15.3v0v0v0Z" fill="#df9b2d" stroke="#995d15" stroke-miterlimit="10"/></g></g></g><g transform="translate(379.363 410.71)"><g transform="translate(-379.363-410.71)"><path d="M553.7,249.7c0,.3-1.1,1.5-2.2,2.2-1.2.8-2.4,1-2.4,1s-.7,1.1.9,1.1l1.7-1.5c1.4-.9,2.9-1.4,2.9-1.4s3.9,5.6,10.5,5.1c16-1.2,21-19.5,20.5-20.1-.3-.3-.8,1-2.4,1l-2.6-.8c-4.8-2.1-6.3-3.3-11.8-2.7-2.9.3-5.8.8-10.6,4.1-7,5-5,10.2-4.5,12v0v0v0Z" fill="#f7b238" stroke="#995d15" stroke-miterlimit="10"/></g></g></g></g></g><g transform="translate(288.32 229.395)"><g transform="translate(-283.32-228.395)"><g id="eJCjl0OWemA251_tr" transform="translate(730.023926,358.450122) rotate(0)"><path d="M734.7,344.9c0,0-1,.8-2.4,1.3l-2,.3c-.8,1.2.2,1.1.2,1.1s.8-.7,2-1.1c1.1-.5,2.5-.7,2.6-.4c1.1,1.3,3.5,5.3,10.4,3.4-5.3,6-3,11.6-2.5,14c.1.6-1.7,2-3.3,3.2-1.7,1-3.6,1.5-3.6,1.5s-.9,1.6,1.4,1.5c.3,0,1.6-1.6,2.6-2.2c2-1.4,4-2.1,4-2.1s5.5,7.7,15.4,6.9c23.4-1.9,31-28,30-29-.5-.4-1.1,1.2-3.4,1.6-1.1.2-2.7-.4-3.8-1-6.8-3.1-9.3-4.9-17.5-3.9-2.7.3-5.6.8-9.1,2.3c1.7-2.3,1.9-4.1,2.7-7.6l.8-2.2c1-1,2.1-.8,2-1.1-.1-.9-15.3-6.7-24.5,3.8-3.4,4.4-2,9.7-2,9.7v0v0v0Z" transform="translate(-730.023926,-358.450118)" fill="#fbc790" stroke="#f3962f" stroke-miterlimit="10"/></g></g></g><g transform="translate(288.135925 229.433258)"><g transform="translate(-283.32-228.395)"><g id="eJCjl0OWemA254_tr" transform="translate(398.541378,338.40274) rotate(0)"><path d="M382.5,343.6v0v0c0,0-5.5-.3-9,4-8.2,11.3.8,24.8,1.6,24.8.3,0-.2-1,.6-2.2l2-1.3c3.2-1.5,4.9-2.1,6.8-4.3-.7,3.8-.5,6.7-.2,9.4.9,8.2,3.2,10.2,7.7,16.2.8,1,1.7,2.4,1.8,3.5.1,2.3-1.3,3.3-.8,3.7c1.2.8,25.1-12.4,21.8-35.6-1.4-9.8-10.1-13.5-10.1-13.5s.3-2.2,1.2-4.4c.4-1,1.6-2.7,1.6-3-.4-2.3-1.8-1.1-1.8-1.1s0,1.9-.7,3.8c-.8,1.8-1.8,3.9-2.4,3.9-2.5,0-8.4-1-13.1,5.5.3-7.1-4.1-8.6-5.6-9.4-.3,0-.4-1.4-.1-2.6.1-1.3.6-2.2.6-2.2s-.2-1-1.2.1l.1,2c-.3,1.5-.8,2.7-.8,2.7v0Z" transform="translate(-398.541378,-338.402738)" fill="#fbc790" stroke="#f3962f" stroke-miterlimit="10"/></g></g></g><g id="eJCjl0OWemA255_tr" transform="translate(790.113279,219.323692) rotate(0)"><g transform="translate(-790.113279,-219.323685)"><g><g transform="translate(379.363 410.71)"><g transform="translate(-379.363-410.71)"><path d="M789.2,229.1c-.2-.3-.1-2.3.4-3.8.6-1.7,1.5-2.8,1.5-2.8s-.2-1.6-1.7-.3l-.5,2.7c-.6,2-1.7,3.6-1.7,3.6s-8.1-2.2-14,3.5c-14.2,13.7-4.5,35-3.5,35.1.5.1,0-1.5,1.5-2.8l3.1-1.3c6.2-1.7,8.6-1.9,13.3-6.7c2.5-2.6,4.8-5.3,6.8-12.2c2.7-10.3-3.4-13.7-5.2-15v0v0v0Z" fill="#f3962f" stroke="#995d15" stroke-miterlimit="10"/></g></g><g transform="translate(379.363 410.71)"><g transform="translate(-379.363-410.71)"><path d="M791.9,227.7v0v0c-2,2-8.9,7.4-3.4,19.6c3.8,8.1,7.1,11,10.7,13.8c6.7,5.1,9.7,4.8,17.7,5.7l4,1c2.1,1.3,1.8,3.4,2.4,3.2c1.2-.4,9.1-28.5-11.2-42.8-8.4-5.9-18-1.6-18-1.6s-1.6-1.8-2.7-4.1l-1.1-3.3c-2.1-1.3-2.1.7-2.1.7s1.4,1.2,2.4,3.2c1,1.7,1.5,4.2,1.3,4.6v0Z" fill="#df9b2d" stroke="#995d15" stroke-miterlimit="10"/></g></g></g><g transform="translate(379.363 410.71)"><g transform="translate(-379.363-410.71)"><path d="M790.6,225.4v0v0c-1.7.8-7,2.7-6.2,11.3.6,5.8,2.1,8.2,3.7,10.7c3.1,4.5,4.9,4.9,9.7,7.2l2.3,1.4c1,1.2.4,2.5.8,2.5.8,0,11.5-15.7,2.1-28.6-3.9-5.4-10.7-4.7-10.7-4.7s-.6-1.4-.8-3.1v-2.3c-1-1.2-1.4,0-1.4,0s.6,1,.8,2.5c.1,1.2-.1,2.9-.3,3.1v0Z" fill="#f7b238" stroke="#995d15" stroke-miterlimit="10"/></g></g></g></g><g id="eJCjl0OWemA266_tr" transform="translate(819.39801,199.984595) rotate(0)"><g transform="translate(-819.39801,-199.984593)"><g transform="translate(334.848 228.395)"><g transform="translate(-334.848-228.395)"><path d="M830.4,182.9c7.7-18.6-9.3-35.5-10.5-35-.4,0,.3,1.5-.2,3.4l-2.1,2.5c-8.2,6.3-10.1,9-11.1,14.8c0,0,2.6.2,4.2,2c1.2,1.4,1.7,3,1.8,4.3s-.4,2.8-2.2,4.4c-2,1.8-4.1,1.6-4.1,1.6c1.4,10.7,9,10.1,11.2,10.8l1.1,3.7c.1,1.7-.2,3.4-.2,3.4s.9,1.2,1.6-.5l-.6-2.9c-.2-2.1-.1-4-.1-4s8-.7,11.2-8.5v0v0Z" fill="#f49631" stroke="#995d15" stroke-miterlimit="10"/></g></g><g transform="translate(379.363 410.71)"><g transform="translate(-379.363-410.71)"><path d="M826.3,194.3c0,.4-1.6,2.2-3.2,3.2-1.8,1.1-3.5,1.4-3.5,1.4s-1,1.6,1.4,1.6l2.5-2.2c2-1.3,4.2-2,4.2-2s5.8,8,15.3,7.2c23.2-2,30-28.6,29.3-29.5-.4-.4-1.2,1.4-3.5,1.4l-3.7-1.1c-7-3-9.2-4.6-17.1-3.7-4.3.6-8.3,1.3-15.2,6.1-10.2,7.4-7.1,15-6.5,17.6v0v0v0Z" fill="#f7b238" stroke="#995d15" stroke-miterlimit="10"/></g></g></g></g><g><g id="eJCjl0OWemA274_tr" transform="translate(868.905151,572.253784) rotate(0)"><g transform="translate(-868.905145,-572.253782)"><g><g transform="translate(379.363 410.71)"><g transform="translate(-379.363-410.71)"><path d="M875,562.5c0,.4-1.3,2.6-2.7,3.8-1.6,1.5-3.3,2.1-3.3,2.1s-.7,1.8,1.7,1.4l2.1-2.7c1.8-1.7,3.9-2.9,3.9-2.9s7.4,7.1,17.1,4.5c23.4-6.3,25.6-34.8,24.6-35.6-.5-.4-.9,1.6-3.3,2.1l-4-.4c-7.7-1.8-10.3-3.1-18.2-.7-4.3,1.3-8.3,2.9-14.5,9.1-9.2,9.6-4.6,16.8-3.4,19.3v0v0v0Z" fill="#f3962f" stroke="#995d15" stroke-miterlimit="10"/></g></g><g transform="translate(379.363 410.71)"><g transform="translate(-379.363-410.71)"><path d="M871.2,562.5v0v0c3.3-1,13.9-2.6,15.3-19c.8-10.9-1.1-16-3.3-21.1-4.2-9.5-7.5-10.8-15.6-16.6l-3.7-3.4c-1.5-2.6.1-4.7-.7-4.9-1.5-.3-26.6,25.2-13.4,52.5c5.5,11.3,18.3,12.4,18.3,12.4s.7,2.9.5,6l-.8,4.2c1.5,2.6,2.7.5,2.7.5s-.8-2.1-.7-4.9c0-2.4,1-5.4,1.4-5.7v0Z" fill="#df9b2d" stroke="#995d15" stroke-miterlimit="10"/></g></g></g><g transform="translate(379.363 410.71)"><g transform="translate(-379.363-410.71)"><path d="M871.3,565.7v0v0c2.3.1,9.1,1.3,13.3-8.5c2.8-6.6,2.7-10.1,2.4-13.7-.6-6.7-2.4-8.2-6.1-13.5l-1.6-2.9c-.4-1.9,1-2.9.6-3.1-.9-.5-21.6,10-19.2,29.5c1,8.1,8.7,11.4,8.7,11.4s-.2,1.9-.9,3.8l-1.3,2.4c.4,1.9,1.5.9,1.5.9s-.1-1.5.6-3.1c.4-1.4,1.6-3.1,2-3.2v0Z" fill="#f7b238" stroke="#995d15" stroke-miterlimit="10"/></g></g></g></g><g id="eJCjl0OWemA285_tr" transform="translate(869.144897,572.617737) rotate(0)"><g transform="translate(-869.144884,-572.617736)"><g><g transform="translate(379.363 410.71)"><g transform="translate(-379.363-410.71)"><path d="M877.9,567.3v0v0c2.1.8,8.3,4,15.4-4c4.7-5.4,5.7-8.8,6.5-12.3c1.5-6.6.3-8.6-1.7-14.8l-.6-3.2c.2-2,1.9-2.4,1.5-2.8-.7-.7-23.7,2.8-27.4,22.2-1.5,8,4.8,13.6,4.8,13.6s-.8,1.8-2.1,3.3l-2,1.9c-.2,2,1.2,1.3,1.2,1.3s.4-1.4,1.5-2.8c.9-1.2,2.6-2.4,2.9-2.4v0Z" fill="#f3962f" stroke="#995d15" stroke-miterlimit="10"/></g></g><g transform="translate(379.363 410.71)"><g transform="translate(-379.363-410.71)"><path d="M878.2,570.4c-.2.4-2.6,1.3-4.5,1.5-2.2.3-4-.3-4-.3s-1.7,1.1.6,2.1l3.4-.9c2.5-.3,4.9,0,4.9,0s1.7,10.4,11.2,14.1c23,9.1,42.2-12.9,41.9-14.1-.2-.6-1.8.8-4-.3l-3-2.8c-5.2-6.2-6.5-8.8-14.5-11.7-4.3-1.5-8.6-2.7-17.4-1.4-13.3,2.3-14,11-14.6,13.8v0v0v0Z" fill="#df9b2d" stroke="#995d15" stroke-miterlimit="10"/></g></g></g><g transform="translate(379.363 410.71)"><g transform="translate(-379.363-410.71)"><path d="M875.6,570.5c-.1.3-1.3,1.4-2.5,1.9-1.3.6-2.5.7-2.5.7s-.8,1,.8,1.2l1.9-1.2c1.5-.7,3-1,3-1s3.2,6,9.8,6.4c16,.8,23.3-16.7,22.8-17.4-.2-.3-.9.8-2.5.7l-2.4-1.1c-4.5-2.7-5.9-4-11.3-4.1-3,0-5.8.1-11,2.8-7.7,3.8-6.3,9.3-6.1,11.1v0v0v0Z" fill="#f7b238" stroke="#995d15" stroke-miterlimit="10"/></g></g></g></g></g><g transform="translate(334.848 228.395)"><g transform="translate(-334.848-228.395)"><g id="eJCjl0OWemA298_tr" transform="translate(770.273682,288.594733) rotate(0)"><path d="M776.4,301.5c9.1,11.4,26.3,6.6,26.4,5.6.1-.3-1.1-.3-2.1-1.3l-.8-2.2c-1-7.4-2-9.6-5.4-12.3c0,0-1.1,1.5-2.8,1.9-1.3.3-2.6,0-3.4-.4s-1.6-1.2-2-2.9c-.5-1.9.5-3.2.5-3.2-7.4-2.8-9.9,2.2-11.1,3.3l-2.8-.6c-1.1-.5-2.1-1.3-2.1-1.3s-1.1.2-.3,1.2l2.1.6c1.4.6,2.6,1.4,2.6,1.4s-2.7,5.4,1.2,10.2v0v0Z" transform="translate(-770.273682,-288.594705)" fill="#b84c41" stroke="#995d15" stroke-miterlimit="10"/></g></g></g><g transform="translate(288.32 229.395)"><g transform="translate(-283.32-228.395)"><g id="eJCjl0OWemA301_tr" transform="translate(674.790914,270) rotate(0)"><path d="M658.8,272.2c0,0,1.1.6,2.2,1.6l1.2,1.6c1.4.2.9-.7.9-.7s-1-.4-1.8-1.3c-.9-.8-1.7-1.9-1.5-2.1.7-1.5,3.2-5.5-1.5-10.8c7.7,2.1,11.8-2.4,13.7-3.9.5-.3,2.6.6,4.3,1.5c1.7,1.1,2.9,2.5,2.9,2.5s1.8.1.7-1.9c-.2-.2-2.1-.8-3.1-1.3-2.1-1.2-3.7-2.7-3.7-2.7s4.5-8.4-.5-16.8c-12-20.2-38.8-15.5-39.2-14.2-.1.6,1.6.5,2.9,2.3.7.9.8,2.6.8,3.9.2,7.5-.3,10.5,4.1,17.4c1.5,2.3,3.2,4.7,6,7.2-2.8-.5-4.6.1-8,.9l-2.3.2c-1.4-.4-1.6-1.5-1.8-1.3-.7.5.7,16.7,14.2,20.4c5.4,1.2,9.5-2.5,9.5-2.5v0v0v0Z" transform="translate(-674.790914,-270)" fill="#f49631" stroke="#a24f16" stroke-miterlimit="10"/></g></g></g><g><g id="eJCjl0OWemA303_tr" transform="translate(843.126679,333.929488) rotate(0)"><g transform="translate(-843.126678,-333.929486)"><g><g transform="translate(379.363 410.71)"><g transform="translate(-379.363-410.71)"><path d="M849.3,341.3c-.3-.1-1.6-1.7-2.2-3.1-.7-1.7-.7-3.1-.7-3.1s-1.2-1-1.5.9l1.4,2.4c.8,1.9,1.1,3.8,1.1,3.8s-7.6,3.6-8.3,11.8c-1.8,19.7,19.4,29.5,20.2,28.9.4-.3-1-1.2-.7-3.1l1.5-3c3.6-5.4,5.3-7,5.7-13.7.2-3.6.1-7.2-2.8-13.7-4.6-9.6-11.4-8.2-13.7-8.1v0v0v0Z" fill="#f3962f" stroke="#995d15" stroke-miterlimit="10"/></g></g><g transform="translate(379.363 410.71)"><g transform="translate(-379.363-410.71)"><path d="M850.4,338.5v0v0c-.2,2.8-1.9,11.4,10.2,17.1c8.1,3.7,12.5,3.7,17.1,3.5c8.4-.6,10.4-2.7,17.1-7.2l3.7-1.9c2.4-.4,3.6,1.4,3.9.8.6-1.1-11.7-27.5-36.4-25.1-10.2,1-14.7,10.5-14.7,10.5s-2.4-.3-4.7-1.3l-3-1.8c-2.4.4-1.1,1.9-1.1,1.9s1.9,0,3.9.8c1.9.7,3.9,2.3,4,2.7v0Z" fill="#df9b2d" stroke="#995d15" stroke-miterlimit="10"/></g></g></g><g transform="translate(379.363 410.71)"><g transform="translate(-379.363-410.71)"><path d="M847.9,337.6v0v0c-.7,1.7-3.6,6.6,2.7,12.6c4.2,4,6.9,4.9,9.8,5.7c5.3,1.4,7,.5,12-.9l2.7-.4c1.6.3,1.9,1.6,2.2,1.3.6-.5-1.5-19.4-17.1-23-6.5-1.5-11.2,3.4-11.2,3.4s-1.4-.7-2.6-1.8l-1.5-1.7c-1.6-.3-1.1.9-1.1.9s1.1.4,2.2,1.3c1,1,1.9,2.4,1.9,2.6v0Z" fill="#f7b238" stroke="#995d15" stroke-miterlimit="10"/></g></g></g></g><g transform="translate(334.848 228.395)"><g transform="translate(-334.848-228.395)"><g id="eJCjl0OWemA316_tr" transform="translate(841.227544,333.295286) rotate(0)"><path d="M831.6,346.7c-6.1,15.8,8.6,29.8,9.6,29.3.4,0-.3-1.2.1-2.9l1.8-2.1c6.8-5.5,8.3-7.8,9.1-12.7c0,0-2.2-.1-3.6-1.6-1-1.2-1.5-2.5-1.6-3.6s.3-2.4,1.8-3.8c1.6-1.6,3.4-1.4,3.4-1.4-1.4-9-7.8-8.3-9.7-8.9l-1-3.1c-.1-1.4.1-2.9.1-2.9s-.8-1-1.4.5l.6,2.4c.2,1.8.2,3.4.2,3.4s-6.9.7-9.4,7.4v0v0Z" transform="translate(-841.227486,-333.295285)" fill="#b84c41" stroke="#995d15" stroke-miterlimit="10"/></g></g></g></g><g transform="matrix(.999992-.003876 0.003876 0.999992 379.363 410.71)"><g transform="matrix(.999993 0.003669-.003669 0.999993-379.363-410.71)"><g id="eJCjl0OWemA319_tr" transform="translate(686.647751,476.686464) rotate(19.82753)"><path d="M679.2,485.6v0v0c.1,1.9-.2,7.6,8.2,10.1c5.6,1.6,8.5,1.2,11.5.6c5.4-1.2,6.5-2.7,10.5-6.3l2.2-1.6c1.5-.5,2.5.6,2.6.2.3-.8-10.3-16.8-26-12.9-6.5,1.6-8.5,8.2-8.5,8.2s-1.6,0-3.2-.4l-2.1-.9c-1.6.5-.6,1.4-.6,1.4s1.2-.2,2.6.2c1.3.3,2.7,1.1,2.8,1.4v0Z" transform="translate(-674.472056,-483.636465)" fill="#df9b2d" stroke="#995d15" stroke-miterlimit="10"/></g></g></g><g id="eJCjl0OWemA320_tr" transform="translate(671.87317,577.376404) rotate(0)"><g transform="translate(-671.87317,-578.376404)"><g><g transform="translate(379.363 410.71)"><g transform="translate(-379.363-410.71)"><path d="M671.4,585.5v0v0c-1.3.9-5.4,3.2-3.5,10.3c1.3,4.7,2.9,6.5,4.6,8.3c3.2,3.3,4.8,3.4,9.1,4.6l2.1.9c1,.9.7,2,1,1.9.7-.1,7.3-14.6-2.4-24-4-3.9-9.6-2.4-9.6-2.4s-.7-1.1-1.1-2.4l-.3-1.9c-1-.9-1.2.2-1.2.2s.7.8,1,1.9c.4,1,.4,2.4.3,2.6v0Z" fill="#f3962f" stroke="#995d15" stroke-miterlimit="10"/></g></g><g transform="translate(379.363 410.71)"><g transform="translate(-379.363-410.71)"><path d="M669.6,584.5c-.1-.3.2-2,.8-3.2.7-1.4,1.7-2.2,1.7-2.2s0-1.4-1.4-.5l-.8,2.3c-.8,1.6-1.9,2.8-1.9,2.8s-6.6-2.9-12.3,1.1c-13.9,9.7-8.5,29-7.6,29.3.4.1.2-1.3,1.7-2.2l2.8-.7c5.5-.7,7.5-.4,12.1-3.9c2.5-1.9,4.8-3.9,7.3-9.4c3.7-8.3-1.1-12-2.4-13.4v0v0v0Z" fill="#df9b2d" stroke="#995d15" stroke-miterlimit="10"/></g></g></g><g transform="translate(379.363 410.71)"><g transform="translate(-379.363-410.71)"><path d="M670.5,582.9c-.1-.1-.3-1.3-.1-2.1.1-1,.6-1.7.6-1.7s-.3-.8-1,0v1.6c-.1,1.1-.6,2.1-.6,2.1s-4.7-.4-7.3,3.2c-6.5,8.9.8,19.6,1.4,19.6.3,0-.1-.8.6-1.7l1.6-1c3.2-1.6,4.5-1.8,6.6-4.9c1.1-1.7,2.1-3.4,2.5-7.3.5-5.9-3.2-7.2-4.3-7.8v0v0v0Z" fill="#f7b238" stroke="#995d15" stroke-miterlimit="10"/></g></g></g></g><g transform="matrix(.999995-.003197 0.003197 0.999995 288.32 229.395)"><g transform="translate(-283.32-228.395)"><g id="eJCjl0OWemA333_tr" transform="translate(785.138565,647.293845) rotate(0)"><path d="M786.4,652.9c0,0,0-.5.2-1.1l.4-.7c-.2-.6-.4-.2-.4-.2s0,.4-.2.9c-.1.5-.4,1-.5.9-.7,0-2.5-.2-3.7,2.4-.6-3.2-2.9-3.9-3.8-4.3-.2-.1-.2-1-.2-1.8.1-.8.4-1.5.4-1.5s-.3-.7-.8.1c-.1.1.1.9,0,1.4-.1,1-.3,1.8-.3,1.8s-3.8-.2-6,3.1c-5.3,7.8,1,16.8,1.6,16.7.2-.1-.1-.7.4-1.5.2-.4.8-.7,1.3-1c2.7-1.4,3.9-1.7,5.6-4.5.6-.9,1.2-1.9,1.6-3.4.3,1.1.8,1.6,1.7,2.7l.5.8c.1.6-.3.8-.2.9.3.2,5.9-3.1,5-8.6-.5-2.3-2.6-3.1-2.6-3.1v0v0v0Z" transform="translate(-785.138565,-647.293845)" fill="#f49631" stroke="#a24f16" stroke-miterlimit="10"/></g></g></g><g transform="translate(379.363 410.71)"><g transform="translate(-379.363-410.71)"><g id="eJCjl0OWemA336_tr" transform="translate(780.477204,540.429932) rotate(0)"><path d="M781.7,543.9v0v0c-.9.7-3.9,2.5-2.3,7.6c1.1,3.4,2.3,4.7,3.6,6c2.4,2.3,3.6,2.3,6.7,3.1l1.5.6c.8.6.6,1.4.8,1.4.5-.1,4.9-10.8-2.4-17.4-3-2.7-7-1.5-7-1.5s-.6-.8-.9-1.7l-.3-1.4c-.8-.6-.9.2-.9.2s.5.5.8,1.4c.4.6.5,1.6.4,1.7v0Z" transform="translate(-780.477204,-540.429932)" fill="#df9b2d" stroke="#995d15" stroke-miterlimit="10"/></g></g></g></g></svg>
