<svg id="_Слой_1" data-name="Слой 1" xmlns="http://www.w3.org/2000/svg" viewBox="0 0 86.16 82.76"><path stroke-width="0" fill="#ffce56" d="M21.54 53.19L4.5 33.94l24.71-7.1L42.26 4.68 56.64 26l25.11 5.55-15.82 20.27 2.47 25.6-24.17-8.79-23.57 10.26.88-25.7z"/><path d="M42.4 9.37l11.61 17.2 1.12 1.65 1.95.43 20.26 4.48-12.77 16.36-1.23 1.57.19 1.99 2 20.66-19.51-7.09-1.87-.68-1.83.8-19.03 8.28.72-20.74.07-1.99-1.32-1.49L9 35.26l19.95-5.73 1.92-.55 1.01-1.72L42.41 9.37M42.12 0L27.57 24.72 0 32.63 19.01 54.1l-.99 28.66 26.3-11.45 26.95 9.8-2.76-28.55 17.65-22.61-28-6.2L42.11 0z" fill="#ffd473" stroke-width="0"/></svg>